EBGaramondVF-yopaqueMax.ufo
<glyph name="exclam" format="1">
  <advance width="250"/>
  <unicode hex="0021"/>
  <outline>
    <contour>
      <point x="153" y="205"/>
      <point x="171" y="231"/>
      <point x="171" y="267" type="curve" smooth="yes"/>
      <point x="171" y="367"/>
      <point x="171" y="531"/>
      <point x="171" y="594" type="curve" smooth="yes"/>
      <point x="171" y="623"/>
      <point x="153" y="649"/>
      <point x="126" y="649" type="curve" smooth="yes"/>
      <point x="99" y="649"/>
      <point x="79" y="623"/>
      <point x="79" y="594" type="curve" smooth="yes"/>
      <point x="79" y="531"/>
      <point x="79" y="360"/>
      <point x="79" y="267" type="curve" smooth="yes"/>
      <point x="79" y="219"/>
      <point x="99" y="205"/>
      <point x="126" y="205" type="curve" smooth="yes"/>
    </contour>
    <contour>
      <point x="158" y="-14"/>
      <point x="185" y="13"/>
      <point x="185" y="46" type="curve" smooth="yes"/>
      <point x="185" y="79"/>
      <point x="158" y="106"/>
      <point x="125" y="106" type="curve" smooth="yes"/>
      <point x="92" y="106"/>
      <point x="65" y="79"/>
      <point x="65" y="46" type="curve" smooth="yes"/>
      <point x="65" y="13"/>
      <point x="92" y="-14"/>
      <point x="125" y="-14" type="curve" smooth="yes"/>
    </contour>
  </outline>
</glyph>
<glyph name="dollar" format="1">
  <advance width="441"/>
  <unicode hex="0024"/>
  <outline>
    <contour>
      <point x="182" y="-82"/>
      <point x="204" y="-79"/>
      <point x="206" y="-67" type="curve" smooth="yes"/>
      <point x="218" y="12" type="line" smooth="yes"/>
      <point x="219" y="17"/>
      <point x="222" y="19"/>
      <point x="227" y="19" type="curve" smooth="yes"/>
      <point x="327" y="19"/>
      <point x="398" y="93"/>
      <point x="398" y="194" type="curve" smooth="yes"/>
      <point x="398" y="284"/>
      <point x="324" y="332"/>
      <point x="280" y="360" type="curve" smooth="yes"/>
      <point x="266" y="369"/>
      <point x="264" y="375"/>
      <point x="265" y="383" type="curve" smooth="yes"/>
      <point x="286" y="546" type="line"/>
      <point x="286" y="548"/>
      <point x="288" y="550"/>
      <point x="290" y="550" type="curve" smooth="yes"/>
      <point x="312" y="550"/>
      <point x="327" y="515"/>
      <point x="338" y="486" type="curve" smooth="yes"/>
      <point x="344" y="472"/>
      <point x="359" y="465"/>
      <point x="372" y="465" type="curve" smooth="yes"/>
      <point x="380" y="465"/>
      <point x="391" y="470"/>
      <point x="391" y="479" type="curve" smooth="yes"/>
      <point x="391" y="507"/>
      <point x="379" y="562"/>
      <point x="372" y="588" type="curve" smooth="yes"/>
      <point x="369" y="597"/>
      <point x="362" y="609"/>
      <point x="352" y="612" type="curve" smooth="yes"/>
      <point x="337" y="618"/>
      <point x="325" y="622"/>
      <point x="307" y="627" type="curve" smooth="yes"/>
      <point x="302" y="628"/>
      <point x="301" y="631"/>
      <point x="301" y="634" type="curve" smooth="yes"/>
      <point x="301" y="643"/>
      <point x="307" y="684"/>
      <point x="308" y="694" type="curve"/>
      <point x="308" y="701"/>
      <point x="302" y="709"/>
      <point x="295" y="709" type="curve" smooth="yes"/>
      <point x="282" y="709"/>
      <point x="230" y="708"/>
      <point x="228" y="695" type="curve" smooth="yes"/>
      <point x="221" y="638" type="line" smooth="yes"/>
      <point x="221" y="635"/>
      <point x="217" y="632"/>
      <point x="211" y="632" type="curve" smooth="yes"/>
      <point x="119" y="631"/>
      <point x="55" y="552"/>
      <point x="55" y="466" type="curve" smooth="yes"/>
      <point x="55" y="390"/>
      <point x="119" y="346"/>
      <point x="169" y="319" type="curve" smooth="yes"/>
      <point x="181" y="312"/>
      <point x="183" y="307"/>
      <point x="182" y="302" type="curve" smooth="yes"/>
      <point x="156" y="104" type="line" smooth="yes"/>
      <point x="155" y="100"/>
      <point x="150" y="99"/>
      <point x="146" y="101" type="curve" smooth="yes"/>
      <point x="119" y="115"/>
      <point x="109" y="125"/>
      <point x="87" y="180" type="curve" smooth="yes"/>
      <point x="84" y="189"/>
      <point x="76" y="195"/>
      <point x="64" y="195" type="curve" smooth="yes"/>
      <point x="49" y="195"/>
      <point x="40" y="186"/>
      <point x="40" y="178" type="curve"/>
      <point x="42" y="153"/>
      <point x="41" y="104"/>
      <point x="48" y="79" type="curve" smooth="yes"/>
      <point x="50" y="72"/>
      <point x="56" y="66"/>
      <point x="60" y="61" type="curve" smooth="yes"/>
      <point x="87" y="40"/>
      <point x="122" y="25"/>
      <point x="138" y="20" type="curve" smooth="yes"/>
      <point x="141" y="19"/>
      <point x="146" y="16"/>
      <point x="145" y="10" type="curve"/>
      <point x="135" y="-62" type="line" smooth="yes"/>
      <point x="133" y="-75"/>
      <point x="146" y="-82"/>
      <point x="162" y="-82" type="curve" smooth="yes"/>
    </contour>
    <contour>
      <point x="233" y="90"/>
      <point x="231" y="92"/>
      <point x="231" y="98" type="curve"/>
      <point x="255" y="269" type="line" smooth="yes"/>
      <point x="255" y="272"/>
      <point x="259" y="275"/>
      <point x="263" y="273" type="curve" smooth="yes"/>
      <point x="285" y="262"/>
      <point x="310" y="233"/>
      <point x="310" y="181" type="curve" smooth="yes"/>
      <point x="310" y="126"/>
      <point x="275" y="93"/>
      <point x="239" y="90" type="curve"/>
    </contour>
    <contour>
      <point x="159" y="436"/>
      <point x="148" y="449"/>
      <point x="148" y="486" type="curve" smooth="yes"/>
      <point x="148" y="533"/>
      <point x="181" y="555"/>
      <point x="205" y="555" type="curve" smooth="yes"/>
      <point x="209" y="555"/>
      <point x="211" y="552"/>
      <point x="211" y="548" type="curve"/>
      <point x="195" y="418" type="line"/>
      <point x="195" y="416"/>
      <point x="195" y="414"/>
      <point x="187" y="417" type="curve"/>
    </contour>
  </outline>
</glyph>
<glyph name="percent" format="1">
  <advance width="650"/>
  <unicode hex="0025"/>
  <outline>
    <contour>
      <point x="109" y="-62"/>
      <point x="128" y="-59"/>
      <point x="140" y="-40" type="curve" smooth="yes"/>
      <point x="589" y="640" type="line"/>
      <point x="590" y="641"/>
      <point x="590" y="645"/>
      <point x="590" y="646" type="curve" smooth="yes"/>
      <point x="590" y="654"/>
      <point x="580" y="665"/>
      <point x="571" y="665" type="curve" smooth="yes"/>
      <point x="546" y="665"/>
      <point x="528" y="661"/>
      <point x="514" y="640" type="curve" smooth="yes"/>
      <point x="64" y="-40" type="line"/>
      <point x="63" y="-41"/>
      <point x="63" y="-44"/>
      <point x="63" y="-45" type="curve" smooth="yes"/>
      <point x="63" y="-53"/>
      <point x="76" y="-62"/>
      <point x="88" y="-62" type="curve" smooth="yes"/>
    </contour>
    <contour>
      <point x="234" y="263"/>
      <point x="285" y="358"/>
      <point x="285" y="449" type="curve" smooth="yes"/>
      <point x="285" y="530"/>
      <point x="241" y="615"/>
      <point x="160" y="615" type="curve" smooth="yes"/>
      <point x="71" y="615"/>
      <point x="15" y="527"/>
      <point x="15" y="438" type="curve" smooth="yes"/>
      <point x="15" y="354"/>
      <point x="58" y="263"/>
      <point x="142" y="263" type="curve" smooth="yes"/>
    </contour>
    <contour>
      <point x="82" y="315"/>
      <point x="75" y="390"/>
      <point x="75" y="447" type="curve" smooth="yes"/>
      <point x="75" y="497"/>
      <point x="87" y="560"/>
      <point x="149" y="560" type="curve" smooth="yes"/>
      <point x="216" y="560"/>
      <point x="225" y="492"/>
      <point x="225" y="437" type="curve" smooth="yes"/>
      <point x="225" y="383"/>
      <point x="219" y="315"/>
      <point x="153" y="315" type="curve" smooth="yes"/>
    </contour>
    <contour>
      <point x="584" y="-17"/>
      <point x="635" y="78"/>
      <point x="635" y="169" type="curve" smooth="yes"/>
      <point x="635" y="250"/>
      <point x="591" y="335"/>
      <point x="510" y="335" type="curve" smooth="yes"/>
      <point x="421" y="335"/>
      <point x="365" y="247"/>
      <point x="365" y="158" type="curve" smooth="yes"/>
      <point x="365" y="74"/>
      <point x="408" y="-17"/>
      <point x="492" y="-17" type="curve" smooth="yes"/>
    </contour>
    <contour>
      <point x="432" y="35"/>
      <point x="425" y="110"/>
      <point x="425" y="167" type="curve" smooth="yes"/>
      <point x="425" y="217"/>
      <point x="437" y="280"/>
      <point x="499" y="280" type="curve" smooth="yes"/>
      <point x="566" y="280"/>
      <point x="575" y="212"/>
      <point x="575" y="157" type="curve" smooth="yes"/>
      <point x="575" y="103"/>
      <point x="569" y="35"/>
      <point x="503" y="35" type="curve" smooth="yes"/>
    </contour>
  </outline>
</glyph>
<glyph name="ampersand" format="1">
  <advance width="756"/>
  <unicode hex="0026"/>
  <outline>
    <contour>
      <point x="305" y="-15"/>
      <point x="362" y="29"/>
      <point x="425" y="97" type="curve"/>
      <point x="431" y="103" type="line"/>
      <point x="440" y="92" type="line" smooth="yes"/>
      <point x="500" y="18"/>
      <point x="519" y="-15"/>
      <point x="589" y="-15" type="curve" smooth="yes"/>
      <point x="644" y="-15"/>
      <point x="715" y="34"/>
      <point x="715" y="51" type="curve" smooth="yes"/>
      <point x="715" y="60"/>
      <point x="709" y="67"/>
      <point x="700" y="67" type="curve" smooth="yes"/>
      <point x="694" y="67"/>
      <point x="688" y="65"/>
      <point x="683" y="62" type="curve" smooth="yes"/>
      <point x="659" y="48"/>
      <point x="637" y="42"/>
      <point x="609" y="42" type="curve" smooth="yes"/>
      <point x="558" y="42"/>
      <point x="523" y="82"/>
      <point x="478" y="141" type="curve" smooth="yes"/>
      <point x="468" y="154" type="line"/>
      <point x="468" y="154"/>
      <point x="608" y="303"/>
      <point x="621" y="314" type="curve"/>
      <point x="641" y="333"/>
      <point x="673" y="353"/>
      <point x="701" y="355" type="curve" smooth="yes"/>
      <point x="720" y="357"/>
      <point x="736" y="367"/>
      <point x="736" y="383" type="curve" smooth="yes"/>
      <point x="736" y="394"/>
      <point x="727" y="405"/>
      <point x="719" y="405" type="curve" smooth="yes"/>
      <point x="695" y="405"/>
      <point x="658" y="400"/>
      <point x="628" y="400" type="curve" smooth="yes"/>
      <point x="613" y="400"/>
      <point x="563" y="410"/>
      <point x="557" y="410" type="curve" smooth="yes"/>
      <point x="546" y="410"/>
      <point x="534" y="403"/>
      <point x="534" y="386" type="curve" smooth="yes"/>
      <point x="534" y="372"/>
      <point x="544" y="367"/>
      <point x="547" y="365" type="curve"/>
      <point x="554" y="363"/>
      <point x="559" y="352"/>
      <point x="559" y="346" type="curve" smooth="yes"/>
      <point x="559" y="332"/>
      <point x="499" y="259"/>
      <point x="455" y="213" type="curve" smooth="yes"/>
      <point x="437" y="194" type="line"/>
      <point x="423" y="210" type="line" smooth="yes"/>
      <point x="376" y="263"/>
      <point x="367" y="279"/>
      <point x="316" y="334" type="curve" smooth="yes"/>
      <point x="303" y="348" type="line"/>
      <point x="317" y="354" type="line" smooth="yes"/>
      <point x="382" y="382"/>
      <point x="412" y="426"/>
      <point x="411" y="477" type="curve" smooth="yes"/>
      <point x="411" y="529"/>
      <point x="370" y="599"/>
      <point x="284" y="599" type="curve" smooth="yes"/>
      <point x="215" y="599"/>
      <point x="145" y="554"/>
      <point x="145" y="484" type="curve" smooth="yes"/>
      <point x="145" y="425"/>
      <point x="182" y="399"/>
      <point x="201" y="377" type="curve"/>
      <point x="216" y="361" type="line"/>
      <point x="196" y="352" type="line" smooth="yes"/>
      <point x="100" y="309"/>
      <point x="38" y="233"/>
      <point x="38" y="127" type="curve" smooth="yes"/>
      <point x="38" y="45"/>
      <point x="109" y="-15"/>
      <point x="212" y="-15" type="curve" smooth="yes"/>
    </contour>
    <contour>
      <point x="165" y="50"/>
      <point x="115" y="99"/>
      <point x="115" y="160" type="curve" smooth="yes"/>
      <point x="115" y="219"/>
      <point x="141" y="274"/>
      <point x="234" y="310" type="curve" smooth="yes"/>
      <point x="255" y="318" type="line"/>
      <point x="267" y="305" type="line" smooth="yes"/>
      <point x="324" y="243"/>
      <point x="339" y="212"/>
      <point x="381" y="168" type="curve" smooth="yes"/>
      <point x="396" y="152" type="line"/>
      <point x="387" y="143" type="line" smooth="yes"/>
      <point x="336" y="92"/>
      <point x="304" y="50"/>
      <point x="238" y="50" type="curve" smooth="yes"/>
    </contour>
    <contour>
      <point x="255" y="405" type="line" smooth="yes"/>
      <point x="206" y="448"/>
      <point x="203" y="464"/>
      <point x="203" y="484" type="curve" smooth="yes"/>
      <point x="203" y="519"/>
      <point x="239" y="544"/>
      <point x="279" y="544" type="curve" smooth="yes"/>
      <point x="325" y="544"/>
      <point x="347" y="506"/>
      <point x="347" y="473" type="curve" smooth="yes"/>
      <point x="347" y="444"/>
      <point x="323" y="418"/>
      <point x="292" y="402" type="curve" smooth="yes"/>
      <point x="271" y="391" type="line"/>
    </contour>
  </outline>
</glyph>
<glyph name="parenleft" format="1">
  <advance width="315"/>
  <unicode hex="0028"/>
  <outline>
    <contour>
      <point x="242" y="-214" type="curve" smooth="yes"/>
      <point x="255" y="-214"/>
      <point x="277" y="-202"/>
      <point x="277" y="-188" type="curve" smooth="yes"/>
      <point x="277" y="-175"/>
      <point x="263" y="-161"/>
      <point x="252" y="-148" type="curve" smooth="yes"/>
      <point x="198" y="-82"/>
      <point x="123" y="111"/>
      <point x="123" y="281" type="curve" smooth="yes"/>
      <point x="123" y="437"/>
      <point x="191" y="574"/>
      <point x="252" y="639" type="curve" smooth="yes"/>
      <point x="263" y="652"/>
      <point x="277" y="666"/>
      <point x="277" y="679" type="curve" smooth="yes"/>
      <point x="277" y="693"/>
      <point x="255" y="705"/>
      <point x="242" y="705" type="curve" smooth="yes"/>
      <point x="236" y="705"/>
      <point x="219" y="697"/>
      <point x="209" y="686" type="curve" smooth="yes"/>
      <point x="145" y="623"/>
      <point x="40" y="439"/>
      <point x="40" y="269" type="curve" smooth="yes"/>
      <point x="40" y="99"/>
      <point x="143" y="-120"/>
      <point x="209" y="-195" type="curve" smooth="yes"/>
      <point x="219" y="-206"/>
      <point x="236" y="-214"/>
    </contour>
  </outline>
</glyph>
<glyph name="asterisk" format="1">
  <advance width="340"/>
  <unicode hex="002A"/>
  <outline>
    <contour>
      <point x="196" y="372"/>
      <point x="207" y="383"/>
      <point x="205" y="398" type="curve" smooth="yes"/>
      <point x="202" y="429"/>
      <point x="198" y="459"/>
      <point x="195" y="487" type="curve"/>
      <point x="221" y="476"/>
      <point x="247" y="461"/>
      <point x="280" y="449" type="curve" smooth="yes"/>
      <point x="288" y="446"/>
      <point x="307" y="451"/>
      <point x="307" y="465" type="curve" smooth="yes"/>
      <point x="307" y="474"/>
      <point x="304" y="483"/>
      <point x="298" y="486" type="curve" smooth="yes"/>
      <point x="267" y="502"/>
      <point x="239" y="513"/>
      <point x="213" y="525" type="curve"/>
      <point x="287" y="579" type="line" smooth="yes"/>
      <point x="293" y="583"/>
      <point x="295" y="594"/>
      <point x="295" y="600" type="curve" smooth="yes"/>
      <point x="295" y="610"/>
      <point x="285" y="616"/>
      <point x="277" y="616" type="curve" smooth="yes"/>
      <point x="272" y="616"/>
      <point x="262" y="612"/>
      <point x="259" y="609" type="curve" smooth="yes"/>
      <point x="229" y="591"/>
      <point x="210" y="576"/>
      <point x="187" y="560" type="curve"/>
      <point x="179" y="646" type="line" smooth="yes"/>
      <point x="178" y="658"/>
      <point x="167" y="670"/>
      <point x="157" y="670" type="curve" smooth="yes"/>
      <point x="145" y="670"/>
      <point x="131" y="659"/>
      <point x="134" y="638" type="curve" smooth="yes"/>
      <point x="138" y="610"/>
      <point x="142" y="583"/>
      <point x="146" y="555" type="curve"/>
      <point x="117" y="568"/>
      <point x="89" y="580"/>
      <point x="63" y="591" type="curve" smooth="yes"/>
      <point x="52" y="596"/>
      <point x="34" y="591"/>
      <point x="34" y="577" type="curve" smooth="yes"/>
      <point x="34" y="570"/>
      <point x="35" y="558"/>
      <point x="49" y="552" type="curve" smooth="yes"/>
      <point x="75" y="540"/>
      <point x="102" y="529"/>
      <point x="128" y="517" type="curve"/>
      <point x="55" y="464" type="line" smooth="yes"/>
      <point x="47" y="459"/>
      <point x="46" y="450"/>
      <point x="46" y="442" type="curve" smooth="yes"/>
      <point x="46" y="432"/>
      <point x="56" y="428"/>
      <point x="64" y="428" type="curve" smooth="yes"/>
      <point x="68" y="428"/>
      <point x="80" y="430"/>
      <point x="83" y="433" type="curve" smooth="yes"/>
      <point x="113" y="451"/>
      <point x="131" y="466"/>
      <point x="154" y="482" type="curve"/>
      <point x="162" y="390" type="line" smooth="yes"/>
      <point x="163" y="381"/>
      <point x="175" y="372"/>
      <point x="184" y="372" type="curve" smooth="yes"/>
    </contour>
  </outline>
</glyph>
<glyph name="zero" format="1">
  <advance width="480"/>
  <unicode hex="0030"/>
  <outline>
    <contour>
      <point x="235" y="-14" type="curve" smooth="yes"/>
      <point x="383" y="-14"/>
      <point x="445" y="166"/>
      <point x="445" y="316" type="curve" smooth="yes"/>
      <point x="445" y="461"/>
      <point x="381" y="630"/>
      <point x="245" y="630" type="curve" smooth="yes"/>
      <point x="97" y="630"/>
      <point x="35" y="454"/>
      <point x="35" y="302" type="curve" smooth="yes"/>
      <point x="35" y="154"/>
      <point x="99" y="-14"/>
    </contour>
    <contour>
      <point x="252" y="67" type="curve" smooth="yes"/>
      <point x="162" y="67"/>
      <point x="118" y="196"/>
      <point x="118" y="318" type="curve" smooth="yes"/>
      <point x="118" y="440"/>
      <point x="146" y="547"/>
      <point x="226" y="547" type="curve" smooth="yes"/>
      <point x="316" y="547"/>
      <point x="363" y="422"/>
      <point x="363" y="300" type="curve" smooth="yes"/>
      <point x="363" y="178"/>
      <point x="332" y="67"/>
    </contour>
  </outline>
</glyph>
<glyph name="one" format="1">
  <advance width="480"/>
  <unicode hex="0031"/>
  <outline>
    <contour>
      <point x="161" y="-3"/>
      <point x="203" y="2"/>
      <point x="257" y="2" type="curve" smooth="yes"/>
      <point x="310" y="2"/>
      <point x="347" y="-3"/>
      <point x="395" y="-3" type="curve" smooth="yes"/>
      <point x="412" y="-3"/>
      <point x="418" y="7"/>
      <point x="418" y="20" type="curve" smooth="yes"/>
      <point x="418" y="32"/>
      <point x="411" y="42"/>
      <point x="395" y="47" type="curve" smooth="yes"/>
      <point x="319" y="69"/>
      <point x="295" y="77"/>
      <point x="295" y="160" type="curve" smooth="yes"/>
      <point x="295" y="557" type="line" smooth="yes"/>
      <point x="295" y="585"/>
      <point x="297" y="599"/>
      <point x="299" y="619" type="curve" smooth="yes"/>
      <point x="300" y="628"/>
      <point x="294" y="638"/>
      <point x="280" y="638" type="curve" smooth="yes"/>
      <point x="268" y="638"/>
      <point x="258" y="632"/>
      <point x="238" y="615" type="curve" smooth="yes"/>
      <point x="210" y="591"/>
      <point x="186" y="583"/>
      <point x="132" y="574" type="curve" smooth="yes"/>
      <point x="118" y="571"/>
      <point x="107" y="561"/>
      <point x="107" y="548" type="curve" smooth="yes"/>
      <point x="107" y="533"/>
      <point x="120" y="526"/>
      <point x="133" y="524" type="curve" smooth="yes"/>
      <point x="176" y="520"/>
      <point x="217" y="510"/>
      <point x="217" y="456" type="curve" smooth="yes"/>
      <point x="217" y="159" type="line" smooth="yes"/>
      <point x="217" y="73"/>
      <point x="183" y="64"/>
      <point x="116" y="48" type="curve" smooth="yes"/>
      <point x="99" y="44"/>
      <point x="92" y="34"/>
      <point x="92" y="21" type="curve" smooth="yes"/>
      <point x="92" y="8"/>
      <point x="98" y="-3"/>
      <point x="114" y="-3" type="curve" smooth="yes"/>
    </contour>
  </outline>
</glyph>
<glyph name="two" format="1">
  <advance width="480"/>
  <unicode hex="0032"/>
  <outline>
    <contour>
      <point x="426" y="-3"/>
      <point x="437" y="0"/>
      <point x="441" y="21" type="curve" smooth="yes"/>
      <point x="451" y="71"/>
      <point x="472" y="127"/>
      <point x="472" y="140" type="curve" smooth="yes"/>
      <point x="472" y="147"/>
      <point x="468" y="161"/>
      <point x="452" y="161" type="curve" smooth="yes"/>
      <point x="432" y="161"/>
      <point x="422" y="142"/>
      <point x="415" y="127" type="curve" smooth="yes"/>
      <point x="397" y="88"/>
      <point x="368" y="61"/>
      <point x="319" y="61" type="curve" smooth="yes"/>
      <point x="299" y="61"/>
      <point x="275" y="61"/>
      <point x="251" y="61" type="curve" smooth="yes"/>
      <point x="214" y="61"/>
      <point x="215" y="61"/>
      <point x="193" y="64" type="curve" smooth="yes"/>
      <point x="185" y="65"/>
      <point x="179" y="66"/>
      <point x="179" y="71" type="curve" smooth="yes"/>
      <point x="179" y="76"/>
      <point x="295" y="233"/>
      <point x="340" y="287" type="curve" smooth="yes"/>
      <point x="382" y="338"/>
      <point x="411" y="411"/>
      <point x="411" y="465" type="curve" smooth="yes"/>
      <point x="411" y="562"/>
      <point x="351" y="630"/>
      <point x="251" y="630" type="curve" smooth="yes"/>
      <point x="128" y="630"/>
      <point x="54" y="545"/>
      <point x="54" y="504" type="curve" smooth="yes"/>
      <point x="54" y="486"/>
      <point x="70" y="458"/>
      <point x="89" y="458" type="curve" smooth="yes"/>
      <point x="106" y="458"/>
      <point x="121" y="474"/>
      <point x="126" y="482" type="curve" smooth="yes"/>
      <point x="155" y="528"/>
      <point x="178" y="566"/>
      <point x="228" y="566" type="curve" smooth="yes"/>
      <point x="281" y="566"/>
      <point x="319" y="523"/>
      <point x="319" y="452" type="curve" smooth="yes"/>
      <point x="319" y="379"/>
      <point x="247" y="285"/>
      <point x="187" y="211" type="curve" smooth="yes"/>
      <point x="40" y="28" type="line" smooth="yes"/>
      <point x="35" y="22"/>
      <point x="32" y="21"/>
      <point x="32" y="15" type="curve" smooth="yes"/>
      <point x="32" y="9"/>
      <point x="47" y="-2"/>
      <point x="52" y="-2" type="curve" smooth="yes"/>
      <point x="72" y="-2"/>
      <point x="234" y="3"/>
      <point x="284" y="3" type="curve" smooth="yes"/>
      <point x="334" y="3"/>
      <point x="399" y="-3"/>
      <point x="419" y="-3" type="curve" smooth="yes"/>
    </contour>
  </outline>
</glyph>
<glyph name="three" format="1">
  <advance width="480"/>
  <unicode hex="0033"/>
  <outline>
    <contour>
      <point x="161" y="-38" type="curve" smooth="yes"/>
      <point x="297" y="-38"/>
      <point x="439" y="53"/>
      <point x="439" y="203" type="curve" smooth="yes"/>
      <point x="439" y="291"/>
      <point x="375" y="350"/>
      <point x="309" y="354" type="curve" smooth="yes"/>
      <point x="305" y="354"/>
      <point x="305" y="358"/>
      <point x="308" y="360" type="curve"/>
      <point x="370" y="408"/>
      <point x="391" y="465"/>
      <point x="391" y="516" type="curve" smooth="yes"/>
      <point x="391" y="584"/>
      <point x="327" y="630"/>
      <point x="261" y="630" type="curve" smooth="yes"/>
      <point x="125" y="630"/>
      <point x="68" y="535"/>
      <point x="68" y="500" type="curve" smooth="yes"/>
      <point x="68" y="490"/>
      <point x="79" y="456"/>
      <point x="114" y="456" type="curve" smooth="yes"/>
      <point x="127" y="456"/>
      <point x="161" y="559"/>
      <point x="230" y="559" type="curve" smooth="yes"/>
      <point x="277" y="559"/>
      <point x="308" y="529"/>
      <point x="308" y="479" type="curve" smooth="yes"/>
      <point x="308" y="418"/>
      <point x="262" y="375"/>
      <point x="186" y="342" type="curve" smooth="yes"/>
      <point x="171" y="335"/>
      <point x="154" y="322"/>
      <point x="154" y="289" type="curve" smooth="yes"/>
      <point x="154" y="272"/>
      <point x="166" y="261"/>
      <point x="173" y="265" type="curve" smooth="yes"/>
      <point x="196" y="277"/>
      <point x="223" y="279"/>
      <point x="238" y="279" type="curve" smooth="yes"/>
      <point x="315" y="279"/>
      <point x="354" y="213"/>
      <point x="354" y="151" type="curve" smooth="yes"/>
      <point x="354" y="84"/>
      <point x="281" y="33"/>
      <point x="208" y="33" type="curve" smooth="yes"/>
      <point x="171" y="33"/>
      <point x="150" y="48"/>
      <point x="133" y="61" type="curve" smooth="yes"/>
      <point x="120" y="70"/>
      <point x="109" y="79"/>
      <point x="94" y="79" type="curve" smooth="yes"/>
      <point x="75" y="79"/>
      <point x="50" y="46"/>
      <point x="50" y="28" type="curve" smooth="yes"/>
      <point x="50" y="-21"/>
      <point x="114" y="-38"/>
    </contour>
  </outline>
</glyph>
<glyph name="four" format="1">
  <advance width="480"/>
  <unicode hex="0034"/>
  <outline>
    <contour>
      <point x="277" y="-5"/>
      <point x="290" y="5"/>
      <point x="333" y="5" type="curve" smooth="yes"/>
      <point x="379" y="5"/>
      <point x="396" y="-5"/>
      <point x="450" y="-5" type="curve" smooth="yes"/>
      <point x="467" y="-5"/>
      <point x="479" y="5"/>
      <point x="479" y="21" type="curve" smooth="yes"/>
      <point x="479" y="39"/>
      <point x="470" y="45"/>
      <point x="447" y="53" type="curve" smooth="yes"/>
      <point x="403" y="63"/>
      <point x="368" y="87"/>
      <point x="368" y="122" type="curve" smooth="yes"/>
      <point x="368" y="163" type="line" smooth="yes"/>
      <point x="368" y="164"/>
      <point x="376" y="168"/>
      <point x="381" y="169" type="curve"/>
      <point x="389" y="170"/>
      <point x="400" y="171"/>
      <point x="412" y="171" type="curve" smooth="yes"/>
      <point x="428" y="171"/>
      <point x="446" y="170"/>
      <point x="461" y="170" type="curve" smooth="yes"/>
      <point x="465" y="170"/>
      <point x="482" y="226"/>
      <point x="482" y="242" type="curve" smooth="yes"/>
      <point x="482" y="246"/>
      <point x="477" y="250"/>
      <point x="471" y="250" type="curve"/>
      <point x="449" y="249"/>
      <point x="431" y="248"/>
      <point x="412" y="248" type="curve" smooth="yes"/>
      <point x="400" y="248"/>
      <point x="387" y="248"/>
      <point x="372" y="249" type="curve"/>
      <point x="369" y="249"/>
      <point x="367" y="252"/>
      <point x="367" y="255" type="curve" smooth="yes"/>
      <point x="367" y="345" type="line" smooth="yes"/>
      <point x="367" y="387"/>
      <point x="367" y="409"/>
      <point x="352" y="409" type="curve" smooth="yes"/>
      <point x="343" y="409"/>
      <point x="316" y="407"/>
      <point x="296" y="396" type="curve"/>
      <point x="288" y="392"/>
      <point x="287" y="388"/>
      <point x="287" y="374" type="curve" smooth="yes"/>
      <point x="287" y="255" type="line" smooth="yes"/>
      <point x="287" y="251"/>
      <point x="280" y="247"/>
      <point x="275" y="247" type="curve" smooth="yes"/>
      <point x="162" y="247" type="line" smooth="yes"/>
      <point x="158" y="247"/>
      <point x="160" y="253"/>
      <point x="162" y="256" type="curve" smooth="yes"/>
      <point x="393" y="628" type="line"/>
      <point x="393" y="628"/>
      <point x="401" y="642"/>
      <point x="395" y="642" type="curve" smooth="yes"/>
      <point x="333" y="642" type="line" smooth="yes"/>
      <point x="323" y="642"/>
      <point x="311" y="626"/>
      <point x="303" y="614" type="curve" smooth="yes"/>
      <point x="59" y="235" type="line" smooth="yes"/>
      <point x="47" y="217"/>
      <point x="40" y="203"/>
      <point x="20" y="173" type="curve" smooth="yes"/>
      <point x="19" y="172"/>
      <point x="19" y="171"/>
      <point x="19" y="170" type="curve" smooth="yes"/>
      <point x="19" y="166"/>
      <point x="24" y="160"/>
      <point x="29" y="160" type="curve" smooth="yes"/>
      <point x="134" y="160"/>
      <point x="190" y="167"/>
      <point x="272" y="167" type="curve" smooth="yes"/>
      <point x="273" y="167"/>
      <point x="287" y="164"/>
      <point x="287" y="158" type="curve" smooth="yes"/>
      <point x="287" y="109" type="line" smooth="yes"/>
      <point x="287" y="73"/>
      <point x="276" y="59"/>
      <point x="226" y="53" type="curve" smooth="yes"/>
      <point x="202" y="48"/>
      <point x="194" y="39"/>
      <point x="194" y="21" type="curve" smooth="yes"/>
      <point x="194" y="5"/>
      <point x="206" y="-5"/>
      <point x="223" y="-5" type="curve" smooth="yes"/>
    </contour>
  </outline>
</glyph>
<glyph name="six" format="1">
  <advance width="480"/>
  <unicode hex="0036"/>
  <outline>
    <contour>
      <point x="252" y="-16" type="curve" smooth="yes"/>
      <point x="349" y="-16"/>
      <point x="457" y="65"/>
      <point x="457" y="190" type="curve" smooth="yes"/>
      <point x="457" y="262"/>
      <point x="395" y="313"/>
      <point x="326" y="313" type="curve" smooth="yes"/>
      <point x="298" y="313"/>
      <point x="265" y="296"/>
      <point x="237" y="274" type="curve" smooth="yes"/>
      <point x="224" y="263"/>
      <point x="211" y="252"/>
      <point x="201" y="241" type="curve" smooth="yes"/>
      <point x="177" y="214"/>
      <point x="184" y="183"/>
      <point x="208" y="203" type="curve" smooth="yes"/>
      <point x="231" y="222"/>
      <point x="253" y="227"/>
      <point x="288" y="227" type="curve" smooth="yes"/>
      <point x="341" y="227"/>
      <point x="379" y="189"/>
      <point x="379" y="148" type="curve" smooth="yes"/>
      <point x="379" y="93"/>
      <point x="330" y="68"/>
      <point x="276" y="69" type="curve" smooth="yes"/>
      <point x="210" y="70"/>
      <point x="135" y="123"/>
      <point x="133" y="221" type="curve" smooth="yes"/>
      <point x="133" y="310"/>
      <point x="174" y="396"/>
      <point x="240" y="464" type="curve" smooth="yes"/>
      <point x="291" y="516"/>
      <point x="356" y="557"/>
      <point x="427" y="580" type="curve" smooth="yes"/>
      <point x="434" y="582"/>
      <point x="453" y="593"/>
      <point x="453" y="614" type="curve" smooth="yes"/>
      <point x="453" y="622"/>
      <point x="448" y="645"/>
      <point x="409" y="634" type="curve" smooth="yes"/>
      <point x="328" y="611"/>
      <point x="253" y="566"/>
      <point x="193" y="508" type="curve" smooth="yes"/>
      <point x="104" y="422"/>
      <point x="47" y="308"/>
      <point x="47" y="193" type="curve" smooth="yes"/>
      <point x="47" y="53"/>
      <point x="149" y="-16"/>
    </contour>
  </outline>
</glyph>
<glyph name="eight" format="1">
  <advance width="480"/>
  <unicode hex="0038"/>
  <outline>
    <contour>
      <point x="230" y="-14" type="curve"/>
      <point x="328" y="-14"/>
      <point x="427" y="60"/>
      <point x="427" y="164" type="curve"/>
      <point x="427" y="241"/>
      <point x="375" y="288"/>
      <point x="321" y="321" type="curve" smooth="yes"/>
      <point x="310" y="328"/>
      <point x="309" y="330"/>
      <point x="326" y="342" type="curve"/>
      <point x="349" y="358"/>
      <point x="360" y="368"/>
      <point x="362" y="370" type="curve" smooth="yes"/>
      <point x="387" y="391"/>
      <point x="409" y="433"/>
      <point x="409" y="496" type="curve" smooth="yes"/>
      <point x="409" y="577"/>
      <point x="330" y="630"/>
      <point x="250" y="630" type="curve"/>
      <point x="161" y="630"/>
      <point x="68" y="567"/>
      <point x="68" y="489" type="curve"/>
      <point x="68" y="404"/>
      <point x="106" y="384"/>
      <point x="165" y="332" type="curve"/>
      <point x="173" y="325"/>
      <point x="177" y="324"/>
      <point x="168" y="319" type="curve" smooth="yes"/>
      <point x="125" y="288"/>
      <point x="53" y="238"/>
      <point x="53" y="141" type="curve" smooth="yes"/>
      <point x="53" y="49"/>
      <point x="138" y="-14"/>
    </contour>
    <contour>
      <point x="244" y="63" type="curve"/>
      <point x="174" y="63"/>
      <point x="133" y="123"/>
      <point x="133" y="170" type="curve" smooth="yes"/>
      <point x="133" y="211"/>
      <point x="168" y="236"/>
      <point x="221" y="270" type="curve" smooth="yes"/>
      <point x="226" y="273"/>
      <point x="230" y="275"/>
      <point x="233" y="275" type="curve"/>
      <point x="239" y="275"/>
      <point x="245" y="272"/>
      <point x="253" y="267" type="curve"/>
      <point x="287" y="249"/>
      <point x="347" y="204"/>
      <point x="347" y="153" type="curve" smooth="yes"/>
      <point x="347" y="105"/>
      <point x="303" y="63"/>
    </contour>
    <contour>
      <point x="250" y="377" type="curve"/>
      <point x="246" y="375"/>
      <point x="240" y="378"/>
      <point x="236" y="380" type="curve" smooth="yes"/>
      <point x="180" y="414"/>
      <point x="147" y="448"/>
      <point x="146" y="482" type="curve" smooth="yes"/>
      <point x="145" y="519"/>
      <point x="173" y="548"/>
      <point x="245" y="548" type="curve" smooth="yes"/>
      <point x="303" y="548"/>
      <point x="331" y="519"/>
      <point x="331" y="480" type="curve" smooth="yes"/>
      <point x="331" y="444"/>
      <point x="304" y="402"/>
    </contour>
  </outline>
</glyph>
<glyph name="less" format="1">
  <advance width="560"/>
  <unicode hex="003C"/>
  <outline>
    <contour>
      <point x="479" y="2" type="line" smooth="yes"/>
      <point x="489" y="-3"/>
      <point x="508" y="-4"/>
      <point x="508" y="15" type="curve" smooth="yes"/>
      <point x="508" y="28"/>
      <point x="501" y="71"/>
      <point x="473" y="85" type="curve" smooth="yes"/>
      <point x="170" y="240" type="line"/>
      <point x="166" y="242"/>
      <point x="164" y="246"/>
      <point x="169" y="248" type="curve"/>
      <point x="461" y="396" type="line" smooth="yes"/>
      <point x="490" y="411"/>
      <point x="506" y="453"/>
      <point x="506" y="471" type="curve" smooth="yes"/>
      <point x="506" y="479"/>
      <point x="502" y="485"/>
      <point x="493" y="485" type="curve" smooth="yes"/>
      <point x="491" y="485"/>
      <point x="485" y="483"/>
      <point x="481" y="481" type="curve" smooth="yes"/>
      <point x="101" y="296" type="line" smooth="yes"/>
      <point x="72" y="282"/>
      <point x="53" y="241"/>
      <point x="53" y="228" type="curve" smooth="yes"/>
      <point x="53" y="219"/>
      <point x="89" y="201"/>
      <point x="113" y="189" type="curve" smooth="yes"/>
    </contour>
  </outline>
</glyph>
<glyph name="question" format="1">
  <advance width="376"/>
  <unicode hex="003F"/>
  <outline>
    <contour>
      <point x="139" y="181" type="curve" smooth="yes"/>
      <point x="159" y="181"/>
      <point x="171" y="194"/>
      <point x="171" y="204" type="curve" smooth="yes"/>
      <point x="172" y="236"/>
      <point x="174" y="267"/>
      <point x="199" y="285" type="curve" smooth="yes"/>
      <point x="227" y="306"/>
      <point x="236" y="310"/>
      <point x="275" y="334" type="curve" smooth="yes"/>
      <point x="292" y="345"/>
      <point x="311" y="369"/>
      <point x="311" y="418" type="curve" smooth="yes"/>
      <point x="311" y="469"/>
      <point x="274" y="555"/>
      <point x="218" y="611" type="curve" smooth="yes"/>
      <point x="185" y="644"/>
      <point x="143" y="661"/>
      <point x="110" y="661" type="curve" smooth="yes"/>
      <point x="93" y="661"/>
      <point x="70" y="642"/>
      <point x="70" y="621" type="curve" smooth="yes"/>
      <point x="70" y="591"/>
      <point x="91" y="559"/>
      <point x="112" y="559" type="curve" smooth="yes"/>
      <point x="120" y="559"/>
      <point x="126" y="560"/>
      <point x="131" y="561" type="curve" smooth="yes"/>
      <point x="137" y="562"/>
      <point x="142" y="563"/>
      <point x="149" y="563" type="curve" smooth="yes"/>
      <point x="203" y="562"/>
      <point x="230" y="515"/>
      <point x="230" y="448" type="curve" smooth="yes"/>
      <point x="230" y="420"/>
      <point x="204" y="389"/>
      <point x="181" y="378" type="curve" smooth="yes"/>
      <point x="136" y="356"/>
      <point x="95" y="327"/>
      <point x="95" y="293" type="curve" smooth="yes"/>
      <point x="95" y="248"/>
      <point x="95" y="231"/>
      <point x="100" y="210" type="curve" smooth="yes"/>
      <point x="104" y="193"/>
      <point x="124" y="181"/>
    </contour>
    <contour>
      <point x="150" y="-14" type="curve" smooth="yes"/>
      <point x="183" y="-14"/>
      <point x="210" y="13"/>
      <point x="210" y="46" type="curve" smooth="yes"/>
      <point x="210" y="79"/>
      <point x="183" y="106"/>
      <point x="150" y="106" type="curve" smooth="yes"/>
      <point x="117" y="106"/>
      <point x="90" y="79"/>
      <point x="90" y="46" type="curve" smooth="yes"/>
      <point x="90" y="13"/>
      <point x="117" y="-14"/>
    </contour>
  </outline>
</glyph>
<glyph name="at" format="1">
  <advance width="749"/>
  <unicode hex="0040"/>
  <outline>
    <contour>
      <point x="382" y="-144" type="curve" smooth="yes"/>
      <point x="524" y="-144"/>
      <point x="643" y="-72"/>
      <point x="643" y="-28" type="curve" smooth="yes"/>
      <point x="643" y="-5"/>
      <point x="633" y="8"/>
      <point x="608" y="8" type="curve" smooth="yes"/>
      <point x="595" y="8"/>
      <point x="578" y="-7"/>
      <point x="559" y="-18" type="curve" smooth="yes"/>
      <point x="505" y="-49"/>
      <point x="439" y="-72"/>
      <point x="391" y="-72" type="curve" smooth="yes"/>
      <point x="240" y="-72"/>
      <point x="116" y="38"/>
      <point x="116" y="191" type="curve" smooth="yes"/>
      <point x="116" y="345"/>
      <point x="248" y="449"/>
      <point x="392" y="449" type="curve" smooth="yes"/>
      <point x="527" y="449"/>
      <point x="633" y="353"/>
      <point x="633" y="217" type="curve" smooth="yes"/>
      <point x="633" y="136"/>
      <point x="585" y="107"/>
      <point x="541" y="107" type="curve" smooth="yes"/>
      <point x="507" y="107"/>
      <point x="503" y="121"/>
      <point x="503" y="136" type="curve" smooth="yes"/>
      <point x="503" y="145"/>
      <point x="505" y="154"/>
      <point x="506" y="163" type="curve"/>
      <point x="524" y="272" type="line" smooth="yes"/>
      <point x="527" y="288"/>
      <point x="537" y="328"/>
      <point x="546" y="352" type="curve"/>
      <point x="549" y="356"/>
      <point x="532" y="360"/>
      <point x="528" y="360" type="curve" smooth="yes"/>
      <point x="518" y="360"/>
      <point x="513" y="341"/>
      <point x="503" y="341" type="curve" smooth="yes"/>
      <point x="499" y="341"/>
      <point x="495" y="342"/>
      <point x="480" y="347" type="curve" smooth="yes"/>
      <point x="468" y="351"/>
      <point x="435" y="355"/>
      <point x="415" y="355" type="curve" smooth="yes"/>
      <point x="305" y="355"/>
      <point x="204" y="277"/>
      <point x="204" y="156" type="curve" smooth="yes"/>
      <point x="204" y="86"/>
      <point x="256" y="47"/>
      <point x="322" y="47" type="curve" smooth="yes"/>
      <point x="385" y="47"/>
      <point x="428" y="84"/>
      <point x="438" y="84" type="curve" smooth="yes"/>
      <point x="448" y="84"/>
      <point x="451" y="47"/>
      <point x="497" y="41" type="curve" smooth="yes"/>
      <point x="608" y="41"/>
      <point x="713" y="115"/>
      <point x="713" y="237" type="curve" smooth="yes"/>
      <point x="713" y="392"/>
      <point x="571" y="520"/>
      <point x="416" y="520" type="curve" smooth="yes"/>
      <point x="217" y="520"/>
      <point x="36" y="404"/>
      <point x="36" y="181" type="curve" smooth="yes"/>
      <point x="36" y="-11"/>
      <point x="197" y="-144"/>
    </contour>
    <contour>
      <point x="358" y="104" type="curve" smooth="yes"/>
      <point x="321" y="104"/>
      <point x="278" y="121"/>
      <point x="278" y="177" type="curve" smooth="yes"/>
      <point x="278" y="253"/>
      <point x="334" y="294"/>
      <point x="390" y="294" type="curve" smooth="yes"/>
      <point x="432" y="294"/>
      <point x="455" y="277"/>
      <point x="455" y="249" type="curve" smooth="yes"/>
      <point x="455" y="246"/>
      <point x="455" y="242"/>
      <point x="454" y="240" type="curve"/>
      <point x="442" y="159" type="line" smooth="yes"/>
      <point x="438" y="135"/>
      <point x="428" y="127"/>
      <point x="416" y="121" type="curve" smooth="yes"/>
      <point x="396" y="111"/>
      <point x="381" y="104"/>
    </contour>
  </outline>
</glyph>
<glyph name="A" format="1">
  <advance width="692"/>
  <unicode hex="0041"/>
  <outline>
    <contour>
      <point x="27" y="-5" type="curve" smooth="yes"/>
      <point x="60" y="-5"/>
      <point x="103" y="7"/>
      <point x="147" y="7" type="curve" smooth="yes"/>
      <point x="184" y="7"/>
      <point x="220" y="3"/>
      <point x="238" y="3" type="curve" smooth="yes"/>
      <point x="255" y="3"/>
      <point x="267" y="9"/>
      <point x="267" y="25" type="curve" smooth="yes"/>
      <point x="267" y="43"/>
      <point x="261" y="54"/>
      <point x="244" y="65" type="curve" smooth="yes"/>
      <point x="224" y="77"/>
      <point x="208" y="91"/>
      <point x="208" y="118" type="curve" smooth="yes"/>
      <point x="208" y="131"/>
      <point x="225" y="184"/>
      <point x="234" y="210" type="curve" smooth="yes"/>
      <point x="239" y="224"/>
      <point x="245" y="228"/>
      <point x="251" y="228" type="curve" smooth="yes"/>
      <point x="429" y="228" type="line" smooth="yes"/>
      <point x="447" y="228"/>
      <point x="453" y="227"/>
      <point x="456" y="217" type="curve" smooth="yes"/>
      <point x="471" y="167"/>
      <point x="481" y="138"/>
      <point x="481" y="109" type="curve" smooth="yes"/>
      <point x="481" y="88"/>
      <point x="466" y="75"/>
      <point x="428" y="67" type="curve" smooth="yes"/>
      <point x="409" y="63"/>
      <point x="395" y="47"/>
      <point x="395" y="29" type="curve" smooth="yes"/>
      <point x="395" y="13"/>
      <point x="407" y="5"/>
      <point x="424" y="5" type="curve" smooth="yes"/>
      <point x="448" y="5"/>
      <point x="490" y="7"/>
      <point x="529" y="7" type="curve" smooth="yes"/>
      <point x="574" y="7"/>
      <point x="640" y="-5"/>
      <point x="668" y="-5" type="curve" smooth="yes"/>
      <point x="685" y="-5"/>
      <point x="697" y="-1"/>
      <point x="697" y="15" type="curve" smooth="yes"/>
      <point x="697" y="33"/>
      <point x="687" y="54"/>
      <point x="657" y="61" type="curve" smooth="yes"/>
      <point x="619" y="69"/>
      <point x="582" y="81"/>
      <point x="551" y="162" type="curve" smooth="yes"/>
      <point x="518" y="257"/>
      <point x="449" y="459"/>
      <point x="385" y="662" type="curve" smooth="yes"/>
      <point x="382" y="670"/>
      <point x="381" y="678"/>
      <point x="378" y="684" type="curve"/>
      <point x="377" y="686"/>
      <point x="374" y="686"/>
      <point x="373" y="685" type="curve"/>
      <point x="369" y="679"/>
      <point x="366" y="659"/>
      <point x="354" y="651" type="curve" smooth="yes"/>
      <point x="342" y="643"/>
      <point x="330" y="640"/>
      <point x="318" y="636" type="curve"/>
      <point x="316" y="615"/>
      <point x="311" y="597"/>
      <point x="304" y="578" type="curve" smooth="yes"/>
      <point x="236" y="393"/>
      <point x="209" y="318"/>
      <point x="134" y="147" type="curve" smooth="yes"/>
      <point x="108" y="95"/>
      <point x="72" y="78"/>
      <point x="43" y="67" type="curve" smooth="yes"/>
      <point x="9" y="54"/>
      <point x="-2" y="39"/>
      <point x="-2" y="21" type="curve" smooth="yes"/>
      <point x="-2" y="5"/>
      <point x="10" y="-5"/>
    </contour>
    <contour>
      <point x="294" y="303" type="line" smooth="yes"/>
      <point x="281" y="303"/>
      <point x="273" y="303"/>
      <point x="273" y="310" type="curve" smooth="yes"/>
      <point x="273" y="312"/>
      <point x="274" y="315"/>
      <point x="275" y="318" type="curve" smooth="yes"/>
      <point x="346" y="505" type="line" smooth="yes"/>
      <point x="350" y="515"/>
      <point x="352" y="522"/>
      <point x="354" y="522" type="curve" smooth="yes"/>
      <point x="357" y="522"/>
      <point x="359" y="516"/>
      <point x="363" y="504" type="curve" smooth="yes"/>
      <point x="421" y="318" type="line"/>
      <point x="422" y="314"/>
      <point x="423" y="310"/>
      <point x="423" y="308" type="curve" smooth="yes"/>
      <point x="423" y="303"/>
      <point x="419" y="303"/>
      <point x="409" y="303" type="curve" smooth="yes"/>
    </contour>
  </outline>
</glyph>
<glyph name="B" format="1">
  <advance width="587"/>
  <unicode hex="0042"/>
  <outline>
    <contour>
      <point x="48" y="-5" type="curve" smooth="yes"/>
      <point x="106" y="-5"/>
      <point x="126" y="0"/>
      <point x="178" y="0" type="curve" smooth="yes"/>
      <point x="218" y="0"/>
      <point x="255" y="-4"/>
      <point x="273" y="-4" type="curve" smooth="yes"/>
      <point x="349" y="-4"/>
      <point x="401" y="9"/>
      <point x="443" y="30" type="curve" smooth="yes"/>
      <point x="484" y="51"/>
      <point x="547" y="84"/>
      <point x="547" y="194" type="curve" smooth="yes"/>
      <point x="547" y="310"/>
      <point x="465" y="339"/>
      <point x="405" y="359" type="curve" smooth="yes"/>
      <point x="399" y="361"/>
      <point x="400" y="367"/>
      <point x="405" y="369" type="curve" smooth="yes"/>
      <point x="438" y="382"/>
      <point x="451" y="391"/>
      <point x="472" y="412" type="curve" smooth="yes"/>
      <point x="487" y="427"/>
      <point x="506" y="463"/>
      <point x="506" y="508" type="curve" smooth="yes"/>
      <point x="506" y="617"/>
      <point x="430" y="657"/>
      <point x="274" y="657" type="curve" smooth="yes"/>
      <point x="216" y="657"/>
      <point x="201" y="652"/>
      <point x="163" y="652" type="curve" smooth="yes"/>
      <point x="122" y="652"/>
      <point x="113" y="653"/>
      <point x="59" y="653" type="curve" smooth="yes"/>
      <point x="39" y="653"/>
      <point x="30" y="643"/>
      <point x="30" y="628" type="curve" smooth="yes"/>
      <point x="30" y="613"/>
      <point x="40" y="603"/>
      <point x="63" y="599" type="curve" smooth="yes"/>
      <point x="112" y="590"/>
      <point x="130" y="569"/>
      <point x="130" y="510" type="curve" smooth="yes"/>
      <point x="130" y="123" type="line" smooth="yes"/>
      <point x="130" y="74"/>
      <point x="102" y="59"/>
      <point x="52" y="49" type="curve" smooth="yes"/>
      <point x="29" y="42"/>
      <point x="19" y="35"/>
      <point x="19" y="19" type="curve" smooth="yes"/>
      <point x="19" y="4"/>
      <point x="31" y="-5"/>
    </contour>
    <contour>
      <point x="287" y="73" type="curve" smooth="yes"/>
      <point x="236" y="73"/>
      <point x="208" y="86"/>
      <point x="208" y="131" type="curve" smooth="yes"/>
      <point x="208" y="291" type="line" smooth="yes"/>
      <point x="208" y="303"/>
      <point x="222" y="321"/>
      <point x="265" y="321" type="curve" smooth="yes"/>
      <point x="325" y="321"/>
      <point x="361" y="308"/>
      <point x="379" y="301" type="curve" smooth="yes"/>
      <point x="406" y="289"/>
      <point x="453" y="258"/>
      <point x="453" y="196" type="curve" smooth="yes"/>
      <point x="453" y="127"/>
      <point x="375" y="73"/>
    </contour>
    <contour>
      <point x="254" y="391" type="curve" smooth="yes"/>
      <point x="238" y="391"/>
      <point x="208" y="393"/>
      <point x="208" y="419" type="curve" smooth="yes"/>
      <point x="208" y="550" type="line" smooth="yes"/>
      <point x="208" y="574"/>
      <point x="219" y="585"/>
      <point x="274" y="585" type="curve" smooth="yes"/>
      <point x="397" y="585"/>
      <point x="420" y="527"/>
      <point x="420" y="484" type="curve" smooth="yes"/>
      <point x="420" y="441"/>
      <point x="389" y="419"/>
      <point x="375" y="413" type="curve" smooth="yes"/>
      <point x="334" y="396"/>
      <point x="290" y="391"/>
    </contour>
  </outline>
</glyph>
<glyph name="C" format="1">
  <advance width="710"/>
  <unicode hex="0043"/>
  <outline>
    <contour>
      <point x="407" y="-15" type="curve" smooth="yes"/>
      <point x="472" y="-15"/>
      <point x="547" y="-6"/>
      <point x="596" y="14" type="curve" smooth="yes"/>
      <point x="616" y="24"/>
      <point x="618" y="24"/>
      <point x="628" y="48" type="curve" smooth="yes"/>
      <point x="643" y="84"/>
      <point x="653" y="152"/>
      <point x="655" y="172" type="curve" smooth="yes"/>
      <point x="658" y="206"/>
      <point x="610" y="218"/>
      <point x="589" y="179" type="curve" smooth="yes"/>
      <point x="556" y="113"/>
      <point x="504" y="65"/>
      <point x="422" y="65" type="curve" smooth="yes"/>
      <point x="238" y="65"/>
      <point x="147" y="200"/>
      <point x="147" y="343" type="curve" smooth="yes"/>
      <point x="147" y="465"/>
      <point x="259" y="580"/>
      <point x="415" y="580" type="curve" smooth="yes"/>
      <point x="467" y="580"/>
      <point x="513" y="571"/>
      <point x="544" y="553" type="curve" smooth="yes"/>
      <point x="577" y="534"/>
      <point x="589" y="506"/>
      <point x="603" y="466" type="curve" smooth="yes"/>
      <point x="615" y="431"/>
      <point x="658" y="444"/>
      <point x="656" y="468" type="curve" smooth="yes"/>
      <point x="652" y="520"/>
      <point x="642" y="572"/>
      <point x="639" y="603" type="curve" smooth="yes"/>
      <point x="637" y="621"/>
      <point x="630" y="631"/>
      <point x="610" y="637" type="curve" smooth="yes"/>
      <point x="547" y="656"/>
      <point x="509" y="663"/>
      <point x="432" y="663" type="curve" smooth="yes"/>
      <point x="227" y="663"/>
      <point x="46" y="517"/>
      <point x="46" y="323" type="curve" smooth="yes"/>
      <point x="46" y="119"/>
      <point x="220" y="-15"/>
    </contour>
  </outline>
</glyph>
<glyph name="D" format="1">
  <advance width="754"/>
  <unicode hex="0044"/>
  <outline>
    <contour>
      <point x="371" y="-7" type="curve" smooth="yes"/>
      <point x="562" y="-7"/>
      <point x="719" y="150"/>
      <point x="719" y="342" type="curve" smooth="yes"/>
      <point x="719" y="517"/>
      <point x="611" y="659"/>
      <point x="340" y="659" type="curve" smooth="yes"/>
      <point x="313" y="659"/>
      <point x="212" y="651"/>
      <point x="169" y="651" type="curve" smooth="yes"/>
      <point x="121" y="651"/>
      <point x="109" y="653"/>
      <point x="58" y="653" type="curve" smooth="yes"/>
      <point x="41" y="653"/>
      <point x="29" y="646"/>
      <point x="29" y="630" type="curve" smooth="yes"/>
      <point x="29" y="611"/>
      <point x="39" y="605"/>
      <point x="62" y="598" type="curve" smooth="yes"/>
      <point x="114" y="586"/>
      <point x="129" y="566"/>
      <point x="129" y="513" type="curve" smooth="yes"/>
      <point x="129" y="157" type="line" smooth="yes"/>
      <point x="129" y="90"/>
      <point x="112" y="66"/>
      <point x="62" y="53" type="curve" smooth="yes"/>
      <point x="39" y="45"/>
      <point x="29" y="43"/>
      <point x="29" y="21" type="curve" smooth="yes"/>
      <point x="29" y="0"/>
      <point x="41" y="-5"/>
      <point x="58" y="-5" type="curve" smooth="yes"/>
      <point x="111" y="-5"/>
      <point x="123" y="0"/>
      <point x="163" y="0" type="curve" smooth="yes"/>
      <point x="242" y="0"/>
      <point x="351" y="-7"/>
    </contour>
    <contour>
      <point x="359" y="73" type="curve" smooth="yes"/>
      <point x="284" y="73"/>
      <point x="209" y="83"/>
      <point x="209" y="152" type="curve" smooth="yes"/>
      <point x="209" y="485" type="line" smooth="yes"/>
      <point x="209" y="581"/>
      <point x="258" y="583"/>
      <point x="345" y="583" type="curve" smooth="yes"/>
      <point x="482" y="583"/>
      <point x="624" y="489"/>
      <point x="624" y="325" type="curve" smooth="yes"/>
      <point x="624" y="178"/>
      <point x="515" y="73"/>
    </contour>
  </outline>
</glyph>
<glyph name="E" format="1">
  <advance width="564"/>
  <unicode hex="0045"/>
  <outline>
    <contour>
      <point x="66" y="-5" type="curve" smooth="yes"/>
      <point x="120" y="-5"/>
      <point x="136" y="1"/>
      <point x="181" y="1" type="curve" smooth="yes"/>
      <point x="281" y="1"/>
      <point x="366" y="-5"/>
      <point x="494" y="-5" type="curve" smooth="yes"/>
      <point x="502" y="-5"/>
      <point x="504" y="3"/>
      <point x="508" y="12" type="curve" smooth="yes"/>
      <point x="520" y="39"/>
      <point x="539" y="149"/>
      <point x="539" y="167" type="curve" smooth="yes"/>
      <point x="539" y="175"/>
      <point x="531" y="184"/>
      <point x="517" y="185" type="curve" smooth="yes"/>
      <point x="503" y="186"/>
      <point x="489" y="176"/>
      <point x="485" y="168" type="curve" smooth="yes"/>
      <point x="465" y="129"/>
      <point x="453" y="105"/>
      <point x="434" y="91" type="curve" smooth="yes"/>
      <point x="416" y="77"/>
      <point x="392" y="74"/>
      <point x="354" y="74" type="curve" smooth="yes"/>
      <point x="290" y="74" type="line" smooth="yes"/>
      <point x="245" y="74"/>
      <point x="224" y="90"/>
      <point x="224" y="141" type="curve" smooth="yes"/>
      <point x="224" y="272" type="line" smooth="yes"/>
      <point x="224" y="295"/>
      <point x="235" y="298"/>
      <point x="258" y="298" type="curve" smooth="yes"/>
      <point x="322" y="298" type="line" smooth="yes"/>
      <point x="353" y="298"/>
      <point x="357" y="292"/>
      <point x="364" y="266" type="curve" smooth="yes"/>
      <point x="371" y="243"/>
      <point x="390" y="232"/>
      <point x="410" y="232" type="curve" smooth="yes"/>
      <point x="426" y="232"/>
      <point x="429" y="242"/>
      <point x="429" y="251" type="curve" smooth="yes"/>
      <point x="429" y="259"/>
      <point x="427" y="317"/>
      <point x="427" y="337" type="curve" smooth="yes"/>
      <point x="427" y="353"/>
      <point x="430" y="405"/>
      <point x="430" y="414" type="curve" smooth="yes"/>
      <point x="430" y="424"/>
      <point x="418" y="435"/>
      <point x="404" y="435" type="curve" smooth="yes"/>
      <point x="388" y="435"/>
      <point x="375" y="423"/>
      <point x="369" y="408" type="curve" smooth="yes"/>
      <point x="361" y="389"/>
      <point x="354" y="374"/>
      <point x="325" y="374" type="curve" smooth="yes"/>
      <point x="242" y="374" type="line" smooth="yes"/>
      <point x="232" y="374"/>
      <point x="224" y="384"/>
      <point x="224" y="396" type="curve" smooth="yes"/>
      <point x="224" y="542" type="line" smooth="yes"/>
      <point x="224" y="561"/>
      <point x="249" y="574"/>
      <point x="260" y="574" type="curve" smooth="yes"/>
      <point x="366" y="574" type="line" smooth="yes"/>
      <point x="391" y="574"/>
      <point x="414" y="568"/>
      <point x="433" y="547" type="curve" smooth="yes"/>
      <point x="442" y="537"/>
      <point x="449" y="518"/>
      <point x="453" y="503" type="curve" smooth="yes"/>
      <point x="456" y="493"/>
      <point x="465" y="482"/>
      <point x="479" y="482" type="curve" smooth="yes"/>
      <point x="492" y="482"/>
      <point x="505" y="491"/>
      <point x="505" y="503" type="curve" smooth="yes"/>
      <point x="505" y="530"/>
      <point x="497" y="606"/>
      <point x="490" y="644" type="curve"/>
      <point x="489" y="651"/>
      <point x="479" y="653"/>
      <point x="472" y="653" type="curve" smooth="yes"/>
      <point x="467" y="653"/>
      <point x="432" y="652"/>
      <point x="387" y="651" type="curve" smooth="yes"/>
      <point x="345" y="651"/>
      <point x="294" y="650"/>
      <point x="250" y="650" type="curve" smooth="yes"/>
      <point x="180" y="650"/>
      <point x="148" y="653"/>
      <point x="73" y="653" type="curve" smooth="yes"/>
      <point x="56" y="653"/>
      <point x="44" y="644"/>
      <point x="44" y="628" type="curve" smooth="yes"/>
      <point x="44" y="610"/>
      <point x="53" y="597"/>
      <point x="77" y="591" type="curve" smooth="yes"/>
      <point x="126" y="579"/>
      <point x="144" y="566"/>
      <point x="144" y="518" type="curve" smooth="yes"/>
      <point x="144" y="128" type="line" smooth="yes"/>
      <point x="144" y="80"/>
      <point x="120" y="65"/>
      <point x="70" y="53" type="curve" smooth="yes"/>
      <point x="46" y="47"/>
      <point x="37" y="35"/>
      <point x="37" y="17" type="curve" smooth="yes"/>
      <point x="37" y="1"/>
      <point x="49" y="-5"/>
    </contour>
  </outline>
</glyph>
<glyph name="F" format="1">
  <advance width="519"/>
  <unicode hex="0046"/>
  <outline>
    <contour>
      <point x="66" y="-5" type="curve" smooth="yes"/>
      <point x="120" y="-5"/>
      <point x="143" y="2"/>
      <point x="192" y="2" type="curve" smooth="yes"/>
      <point x="230" y="2"/>
      <point x="236" y="-5"/>
      <point x="290" y="-5" type="curve" smooth="yes"/>
      <point x="307" y="-5"/>
      <point x="319" y="1"/>
      <point x="319" y="17" type="curve" smooth="yes"/>
      <point x="319" y="35"/>
      <point x="310" y="48"/>
      <point x="286" y="53" type="curve" smooth="yes"/>
      <point x="236" y="63"/>
      <point x="222" y="87"/>
      <point x="220" y="130" type="curve" smooth="yes"/>
      <point x="217" y="196"/>
      <point x="217" y="209"/>
      <point x="217" y="270" type="curve" smooth="yes"/>
      <point x="217" y="287"/>
      <point x="228" y="294"/>
      <point x="241" y="295" type="curve" smooth="yes"/>
      <point x="260" y="296"/>
      <point x="278" y="297"/>
      <point x="299" y="297" type="curve" smooth="yes"/>
      <point x="313" y="297"/>
      <point x="323" y="296"/>
      <point x="338" y="296" type="curve" smooth="yes"/>
      <point x="349" y="296"/>
      <point x="360" y="285"/>
      <point x="371" y="260" type="curve" smooth="yes"/>
      <point x="376" y="249"/>
      <point x="387" y="234"/>
      <point x="415" y="234" type="curve" smooth="yes"/>
      <point x="431" y="234"/>
      <point x="435" y="245"/>
      <point x="435" y="254" type="curve" smooth="yes"/>
      <point x="435" y="281"/>
      <point x="432" y="317"/>
      <point x="432" y="335" type="curve" smooth="yes"/>
      <point x="432" y="350"/>
      <point x="432" y="385"/>
      <point x="435" y="407" type="curve" smooth="yes"/>
      <point x="437" y="421"/>
      <point x="424" y="431"/>
      <point x="409" y="431" type="curve" smooth="yes"/>
      <point x="398" y="431"/>
      <point x="386" y="417"/>
      <point x="378" y="403" type="curve" smooth="yes"/>
      <point x="368" y="385"/>
      <point x="358" y="375"/>
      <point x="348" y="375" type="curve" smooth="yes"/>
      <point x="324" y="375"/>
      <point x="269" y="372"/>
      <point x="227" y="372" type="curve" smooth="yes"/>
      <point x="218" y="372"/>
      <point x="217" y="383"/>
      <point x="217" y="394" type="curve"/>
      <point x="216" y="418"/>
      <point x="216" y="417"/>
      <point x="216" y="451" type="curve" smooth="yes"/>
      <point x="216" y="486"/>
      <point x="216" y="499"/>
      <point x="217" y="524" type="curve" smooth="yes"/>
      <point x="218" y="550"/>
      <point x="220" y="574"/>
      <point x="251" y="574" type="curve" smooth="yes"/>
      <point x="378" y="574" type="line" smooth="yes"/>
      <point x="401" y="574"/>
      <point x="416" y="566"/>
      <point x="428" y="554" type="curve" smooth="yes"/>
      <point x="434" y="547"/>
      <point x="440" y="533"/>
      <point x="444" y="520" type="curve" smooth="yes"/>
      <point x="447" y="507"/>
      <point x="458" y="501"/>
      <point x="474" y="501" type="curve" smooth="yes"/>
      <point x="486" y="501"/>
      <point x="492" y="514"/>
      <point x="492" y="526" type="curve" smooth="yes"/>
      <point x="492" y="540"/>
      <point x="490" y="628"/>
      <point x="487" y="651" type="curve" smooth="yes"/>
      <point x="486" y="658"/>
      <point x="476" y="660"/>
      <point x="469" y="660" type="curve" smooth="yes"/>
      <point x="445" y="660"/>
      <point x="413" y="650"/>
      <point x="370" y="650" type="curve"/>
      <point x="329" y="650"/>
      <point x="283" y="650"/>
      <point x="244" y="650" type="curve" smooth="yes"/>
      <point x="175" y="650"/>
      <point x="145" y="653"/>
      <point x="72" y="653" type="curve" smooth="yes"/>
      <point x="55" y="653"/>
      <point x="43" y="647"/>
      <point x="43" y="631" type="curve" smooth="yes"/>
      <point x="43" y="613"/>
      <point x="52" y="597"/>
      <point x="76" y="591" type="curve" smooth="yes"/>
      <point x="126" y="579"/>
      <point x="137" y="558"/>
      <point x="137" y="507" type="curve" smooth="yes"/>
      <point x="137" y="129" type="line" smooth="yes"/>
      <point x="137" y="80"/>
      <point x="120" y="63"/>
      <point x="70" y="53" type="curve" smooth="yes"/>
      <point x="46" y="48"/>
      <point x="37" y="35"/>
      <point x="37" y="17" type="curve" smooth="yes"/>
      <point x="37" y="1"/>
      <point x="49" y="-5"/>
    </contour>
  </outline>
</glyph>
<glyph name="G" format="1">
  <advance width="729"/>
  <unicode hex="0047"/>
  <outline>
    <contour>
      <point x="392" y="-14" type="curve" smooth="yes"/>
      <point x="519" y="-14"/>
      <point x="610" y="50"/>
      <point x="630" y="53" type="curve" smooth="yes"/>
      <point x="644" y="55"/>
      <point x="644" y="67"/>
      <point x="644" y="72" type="curve" smooth="yes"/>
      <point x="644" y="77"/>
      <point x="635" y="82"/>
      <point x="631" y="89" type="curve"/>
      <point x="628" y="95"/>
      <point x="625" y="98"/>
      <point x="625" y="105" type="curve" smooth="yes"/>
      <point x="625" y="132" type="line" smooth="yes"/>
      <point x="625" y="161"/>
      <point x="626" y="186"/>
      <point x="636" y="202" type="curve" smooth="yes"/>
      <point x="646" y="218"/>
      <point x="659" y="227"/>
      <point x="672" y="234" type="curve" smooth="yes"/>
      <point x="677" y="235"/>
      <point x="693" y="249"/>
      <point x="693" y="264" type="curve" smooth="yes"/>
      <point x="693" y="285"/>
      <point x="677" y="290"/>
      <point x="672" y="290" type="curve" smooth="yes"/>
      <point x="637" y="290"/>
      <point x="620" y="286"/>
      <point x="586" y="286" type="curve" smooth="yes"/>
      <point x="534" y="286"/>
      <point x="512" y="290"/>
      <point x="465" y="290" type="curve" smooth="yes"/>
      <point x="452" y="290"/>
      <point x="435" y="280"/>
      <point x="435" y="257" type="curve" smooth="yes"/>
      <point x="435" y="232"/>
      <point x="456" y="224"/>
      <point x="465" y="224" type="curve" smooth="yes"/>
      <point x="483" y="224"/>
      <point x="536" y="215"/>
      <point x="553" y="202" type="curve" smooth="yes"/>
      <point x="557" y="199"/>
      <point x="558" y="191"/>
      <point x="558" y="182" type="curve" smooth="yes"/>
      <point x="558" y="173"/>
      <point x="558" y="160"/>
      <point x="558" y="152" type="curve" smooth="yes"/>
      <point x="558" y="126"/>
      <point x="543" y="106"/>
      <point x="528" y="94" type="curve" smooth="yes"/>
      <point x="516" y="86"/>
      <point x="483" y="67"/>
      <point x="406" y="67" type="curve" smooth="yes"/>
      <point x="273" y="67"/>
      <point x="144" y="162"/>
      <point x="144" y="324" type="curve" smooth="yes"/>
      <point x="144" y="459"/>
      <point x="249" y="581"/>
      <point x="404" y="581" type="curve" smooth="yes"/>
      <point x="493" y="581"/>
      <point x="541" y="544"/>
      <point x="553" y="528" type="curve" smooth="yes"/>
      <point x="568" y="509"/>
      <point x="574" y="496"/>
      <point x="582" y="475" type="curve" smooth="yes"/>
      <point x="585" y="463"/>
      <point x="591" y="448"/>
      <point x="604" y="448" type="curve" smooth="yes"/>
      <point x="625" y="448"/>
      <point x="632" y="458"/>
      <point x="632" y="468" type="curve" smooth="yes"/>
      <point x="632" y="505"/>
      <point x="627" y="563"/>
      <point x="622" y="618" type="curve" smooth="yes"/>
      <point x="621" y="625"/>
      <point x="619" y="627"/>
      <point x="613" y="630" type="curve" smooth="yes"/>
      <point x="586" y="643"/>
      <point x="459" y="663"/>
      <point x="413" y="663" type="curve" smooth="yes"/>
      <point x="214" y="663"/>
      <point x="45" y="509"/>
      <point x="45" y="311" type="curve" smooth="yes"/>
      <point x="45" y="126"/>
      <point x="207" y="-14"/>
    </contour>
  </outline>
</glyph>
<glyph name="H" format="1">
  <advance width="810"/>
  <unicode hex="0048"/>
  <outline>
    <contour>
      <point x="66" y="-5" type="curve" smooth="yes"/>
      <point x="120" y="-5"/>
      <point x="133" y="5"/>
      <point x="176" y="5" type="curve" smooth="yes"/>
      <point x="222" y="5"/>
      <point x="239" y="-5"/>
      <point x="293" y="-5" type="curve" smooth="yes"/>
      <point x="310" y="-5"/>
      <point x="322" y="5"/>
      <point x="322" y="21" type="curve" smooth="yes"/>
      <point x="322" y="39"/>
      <point x="313" y="45"/>
      <point x="290" y="53" type="curve" smooth="yes"/>
      <point x="244" y="63"/>
      <point x="210" y="101"/>
      <point x="210" y="151" type="curve" smooth="yes"/>
      <point x="210" y="277" type="line" smooth="yes"/>
      <point x="210" y="285"/>
      <point x="210" y="288"/>
      <point x="215" y="288" type="curve" smooth="yes"/>
      <point x="597" y="288" type="line" smooth="yes"/>
      <point x="602" y="288"/>
      <point x="602" y="285"/>
      <point x="602" y="277" type="curve" smooth="yes"/>
      <point x="602" y="151" type="line" smooth="yes"/>
      <point x="602" y="92"/>
      <point x="575" y="62"/>
      <point x="533" y="50" type="curve" smooth="yes"/>
      <point x="510" y="45"/>
      <point x="501" y="39"/>
      <point x="501" y="21" type="curve" smooth="yes"/>
      <point x="501" y="5"/>
      <point x="513" y="-5"/>
      <point x="530" y="-5" type="curve" smooth="yes"/>
      <point x="584" y="-5"/>
      <point x="595" y="5"/>
      <point x="637" y="5" type="curve" smooth="yes"/>
      <point x="678" y="5"/>
      <point x="687" y="-5"/>
      <point x="741" y="-5" type="curve" smooth="yes"/>
      <point x="758" y="-5"/>
      <point x="770" y="5"/>
      <point x="770" y="21" type="curve" smooth="yes"/>
      <point x="770" y="39"/>
      <point x="761" y="45"/>
      <point x="738" y="53" type="curve" smooth="yes"/>
      <point x="688" y="64"/>
      <point x="682" y="85"/>
      <point x="682" y="143" type="curve" smooth="yes"/>
      <point x="682" y="513" type="line" smooth="yes"/>
      <point x="682" y="568"/>
      <point x="688" y="589"/>
      <point x="738" y="599" type="curve" smooth="yes"/>
      <point x="762" y="604"/>
      <point x="770" y="613"/>
      <point x="770" y="631" type="curve" smooth="yes"/>
      <point x="770" y="647"/>
      <point x="758" y="657"/>
      <point x="741" y="657" type="curve" smooth="yes"/>
      <point x="687" y="657"/>
      <point x="678" y="647"/>
      <point x="637" y="647" type="curve" smooth="yes"/>
      <point x="595" y="647"/>
      <point x="584" y="657"/>
      <point x="530" y="657" type="curve" smooth="yes"/>
      <point x="513" y="657"/>
      <point x="501" y="647"/>
      <point x="501" y="631" type="curve" smooth="yes"/>
      <point x="501" y="613"/>
      <point x="510" y="607"/>
      <point x="533" y="602" type="curve" smooth="yes"/>
      <point x="576" y="595"/>
      <point x="602" y="567"/>
      <point x="602" y="519" type="curve" smooth="yes"/>
      <point x="602" y="373" type="line" smooth="yes"/>
      <point x="602" y="365"/>
      <point x="594" y="364"/>
      <point x="588" y="364" type="curve" smooth="yes"/>
      <point x="224" y="364" type="line" smooth="yes"/>
      <point x="218" y="364"/>
      <point x="210" y="365"/>
      <point x="210" y="373" type="curve" smooth="yes"/>
      <point x="210" y="519" type="line" smooth="yes"/>
      <point x="210" y="560"/>
      <point x="244" y="591"/>
      <point x="290" y="599" type="curve" smooth="yes"/>
      <point x="314" y="604"/>
      <point x="322" y="613"/>
      <point x="322" y="631" type="curve" smooth="yes"/>
      <point x="322" y="647"/>
      <point x="310" y="657"/>
      <point x="293" y="657" type="curve" smooth="yes"/>
      <point x="239" y="657"/>
      <point x="222" y="647"/>
      <point x="176" y="647" type="curve" smooth="yes"/>
      <point x="133" y="647"/>
      <point x="120" y="657"/>
      <point x="66" y="657" type="curve" smooth="yes"/>
      <point x="49" y="657"/>
      <point x="37" y="647"/>
      <point x="37" y="631" type="curve" smooth="yes"/>
      <point x="37" y="613"/>
      <point x="46" y="607"/>
      <point x="69" y="599" type="curve" smooth="yes"/>
      <point x="117" y="583"/>
      <point x="130" y="568"/>
      <point x="130" y="513" type="curve" smooth="yes"/>
      <point x="130" y="143" type="line" smooth="yes"/>
      <point x="130" y="85"/>
      <point x="119" y="64"/>
      <point x="69" y="53" type="curve" smooth="yes"/>
      <point x="46" y="45"/>
      <point x="37" y="39"/>
      <point x="37" y="21" type="curve" smooth="yes"/>
      <point x="37" y="5"/>
      <point x="49" y="-5"/>
    </contour>
  </outline>
</glyph>
<glyph name="J" format="1">
  <advance width="340"/>
  <unicode hex="004A"/>
  <outline>
    <contour>
      <point x="34" y="-200" type="curve" smooth="yes"/>
      <point x="89" y="-200"/>
      <point x="128" y="-181"/>
      <point x="156" y="-149" type="curve" smooth="yes"/>
      <point x="195" y="-103"/>
      <point x="210" y="-31"/>
      <point x="210" y="47" type="curve" smooth="yes"/>
      <point x="210" y="495" type="line" smooth="yes"/>
      <point x="210" y="558"/>
      <point x="231" y="579"/>
      <point x="281" y="591" type="curve" smooth="yes"/>
      <point x="304" y="599"/>
      <point x="314" y="613"/>
      <point x="314" y="631" type="curve" smooth="yes"/>
      <point x="314" y="647"/>
      <point x="302" y="653"/>
      <point x="285" y="653" type="curve" smooth="yes"/>
      <point x="231" y="653"/>
      <point x="219" y="647"/>
      <point x="176" y="647" type="curve" smooth="yes"/>
      <point x="130" y="647"/>
      <point x="113" y="653"/>
      <point x="59" y="653" type="curve" smooth="yes"/>
      <point x="42" y="653"/>
      <point x="30" y="647"/>
      <point x="30" y="631" type="curve" smooth="yes"/>
      <point x="30" y="613"/>
      <point x="40" y="599"/>
      <point x="63" y="591" type="curve" smooth="yes"/>
      <point x="113" y="579"/>
      <point x="130" y="558"/>
      <point x="130" y="495" type="curve" smooth="yes"/>
      <point x="130" y="-1" type="line" smooth="yes"/>
      <point x="130" y="-80"/>
      <point x="111" y="-129"/>
      <point x="64" y="-129" type="curve" smooth="yes"/>
      <point x="44" y="-129"/>
      <point x="33" y="-124"/>
      <point x="23" y="-118" type="curve" smooth="yes"/>
      <point x="11" y="-111"/>
      <point x="1" y="-104"/>
      <point x="-22" y="-104" type="curve" smooth="yes"/>
      <point x="-48" y="-104"/>
      <point x="-69" y="-128"/>
      <point x="-69" y="-151" type="curve" smooth="yes"/>
      <point x="-69" y="-182"/>
      <point x="-34" y="-200"/>
    </contour>
  </outline>
</glyph>
<glyph name="K" format="1">
  <advance width="681"/>
  <unicode hex="004B"/>
  <outline>
    <contour>
      <point x="67" y="-5" type="curve" smooth="yes"/>
      <point x="121" y="-5"/>
      <point x="134" y="5"/>
      <point x="177" y="5" type="curve" smooth="yes"/>
      <point x="223" y="5"/>
      <point x="240" y="-5"/>
      <point x="294" y="-5" type="curve" smooth="yes"/>
      <point x="311" y="-5"/>
      <point x="323" y="5"/>
      <point x="323" y="21" type="curve" smooth="yes"/>
      <point x="323" y="39"/>
      <point x="314" y="45"/>
      <point x="291" y="53" type="curve" smooth="yes"/>
      <point x="247" y="68"/>
      <point x="211" y="101"/>
      <point x="211" y="151" type="curve"/>
      <point x="211" y="192"/>
      <point x="211" y="239"/>
      <point x="211" y="302" type="curve" smooth="yes"/>
      <point x="211" y="309"/>
      <point x="210" y="323"/>
      <point x="215" y="323" type="curve" smooth="yes"/>
      <point x="220" y="323"/>
      <point x="230" y="314"/>
      <point x="238" y="306" type="curve"/>
      <point x="442" y="82" type="line" smooth="yes"/>
      <point x="445" y="79"/>
      <point x="448" y="76"/>
      <point x="448" y="73" type="curve" smooth="yes"/>
      <point x="448" y="70"/>
      <point x="445" y="67"/>
      <point x="437" y="65" type="curve"/>
      <point x="418" y="56"/>
      <point x="410" y="46"/>
      <point x="410" y="25" type="curve" smooth="yes"/>
      <point x="410" y="6"/>
      <point x="422" y="-1"/>
      <point x="439" y="-1" type="curve" smooth="yes"/>
      <point x="484" y="-1"/>
      <point x="495" y="0"/>
      <point x="520" y="0" type="curve" smooth="yes"/>
      <point x="575" y="0"/>
      <point x="600" y="-5"/>
      <point x="659" y="-5" type="curve" smooth="yes"/>
      <point x="676" y="-5"/>
      <point x="688" y="2"/>
      <point x="688" y="21" type="curve" smooth="yes"/>
      <point x="688" y="42"/>
      <point x="678" y="52"/>
      <point x="644" y="60" type="curve" smooth="yes"/>
      <point x="586" y="74"/>
      <point x="566" y="73"/>
      <point x="521" y="121" type="curve" smooth="yes"/>
      <point x="325" y="330" type="line" smooth="yes"/>
      <point x="318" y="337"/>
      <point x="315" y="343"/>
      <point x="320" y="348" type="curve"/>
      <point x="390" y="425"/>
      <point x="440" y="474"/>
      <point x="512" y="535" type="curve" smooth="yes"/>
      <point x="545" y="566"/>
      <point x="585" y="580"/>
      <point x="621" y="588" type="curve" smooth="yes"/>
      <point x="659" y="596"/>
      <point x="675" y="612"/>
      <point x="675" y="631" type="curve" smooth="yes"/>
      <point x="675" y="646"/>
      <point x="660" y="655"/>
      <point x="639" y="655" type="curve" smooth="yes"/>
      <point x="628" y="655"/>
      <point x="538" y="651"/>
      <point x="491" y="651" type="curve" smooth="yes"/>
      <point x="437" y="651" type="line" smooth="yes"/>
      <point x="420" y="651"/>
      <point x="408" y="644"/>
      <point x="408" y="628" type="curve" smooth="yes"/>
      <point x="408" y="610"/>
      <point x="413" y="601"/>
      <point x="436" y="589" type="curve"/>
      <point x="441" y="588"/>
      <point x="443" y="585"/>
      <point x="443" y="581" type="curve" smooth="yes"/>
      <point x="443" y="577"/>
      <point x="442" y="573"/>
      <point x="438" y="569" type="curve" smooth="yes"/>
      <point x="243" y="373" type="line"/>
      <point x="236" y="365"/>
      <point x="223" y="355"/>
      <point x="216" y="355" type="curve" smooth="yes"/>
      <point x="211" y="355"/>
      <point x="211" y="369"/>
      <point x="211" y="374" type="curve" smooth="yes"/>
      <point x="211" y="497" type="line" smooth="yes"/>
      <point x="211" y="549"/>
      <point x="223" y="583"/>
      <point x="265" y="592" type="curve" smooth="yes"/>
      <point x="288" y="598"/>
      <point x="298" y="614"/>
      <point x="298" y="629" type="curve" smooth="yes"/>
      <point x="298" y="643"/>
      <point x="286" y="653"/>
      <point x="269" y="653" type="curve" smooth="yes"/>
      <point x="215" y="653"/>
      <point x="210" y="650"/>
      <point x="172" y="650" type="curve" smooth="yes"/>
      <point x="128" y="650"/>
      <point x="114" y="653"/>
      <point x="60" y="653" type="curve" smooth="yes"/>
      <point x="43" y="653"/>
      <point x="31" y="648"/>
      <point x="31" y="634" type="curve" smooth="yes"/>
      <point x="31" y="619"/>
      <point x="41" y="607"/>
      <point x="64" y="600" type="curve" smooth="yes"/>
      <point x="114" y="585"/>
      <point x="131" y="572"/>
      <point x="131" y="513" type="curve" smooth="yes"/>
      <point x="131" y="143" type="line" smooth="yes"/>
      <point x="131" y="85"/>
      <point x="120" y="63"/>
      <point x="70" y="53" type="curve" smooth="yes"/>
      <point x="46" y="48"/>
      <point x="38" y="39"/>
      <point x="38" y="21" type="curve" smooth="yes"/>
      <point x="38" y="5"/>
      <point x="50" y="-5"/>
    </contour>
  </outline>
</glyph>
<glyph name="L" format="1">
  <advance width="594"/>
  <unicode hex="004C"/>
  <outline>
    <contour>
      <point x="65" y="-5" type="curve"/>
      <point x="65" y="-5"/>
      <point x="150" y="0"/>
      <point x="200" y="0" type="curve" smooth="yes"/>
      <point x="300" y="0"/>
      <point x="407" y="-5"/>
      <point x="541" y="-5" type="curve" smooth="yes"/>
      <point x="551" y="-5"/>
      <point x="554" y="3"/>
      <point x="555" y="12" type="curve" smooth="yes"/>
      <point x="561" y="68"/>
      <point x="568" y="111"/>
      <point x="582" y="168" type="curve" smooth="yes"/>
      <point x="584" y="176"/>
      <point x="585" y="181"/>
      <point x="585" y="187" type="curve" smooth="yes"/>
      <point x="585" y="196"/>
      <point x="576" y="206"/>
      <point x="559" y="206" type="curve" smooth="yes"/>
      <point x="542" y="206"/>
      <point x="527" y="190"/>
      <point x="513" y="161" type="curve" smooth="yes"/>
      <point x="501" y="137"/>
      <point x="496" y="125"/>
      <point x="474" y="101" type="curve" smooth="yes"/>
      <point x="463" y="89"/>
      <point x="439" y="75"/>
      <point x="409" y="75" type="curve" smooth="yes"/>
      <point x="297" y="75" type="line" smooth="yes"/>
      <point x="231" y="75"/>
      <point x="220" y="95"/>
      <point x="220" y="136" type="curve" smooth="yes"/>
      <point x="220" y="536" type="line" smooth="yes"/>
      <point x="220" y="575"/>
      <point x="259" y="582"/>
      <point x="300" y="592" type="curve" smooth="yes"/>
      <point x="332" y="599"/>
      <point x="342" y="613"/>
      <point x="342" y="631" type="curve" smooth="yes"/>
      <point x="342" y="647"/>
      <point x="330" y="653"/>
      <point x="313" y="653" type="curve" smooth="yes"/>
      <point x="259" y="653"/>
      <point x="236" y="650"/>
      <point x="187" y="650" type="curve" smooth="yes"/>
      <point x="143" y="650"/>
      <point x="129" y="653"/>
      <point x="75" y="653" type="curve" smooth="yes"/>
      <point x="58" y="653"/>
      <point x="46" y="647"/>
      <point x="46" y="631" type="curve" smooth="yes"/>
      <point x="46" y="613"/>
      <point x="55" y="596"/>
      <point x="79" y="591" type="curve" smooth="yes"/>
      <point x="129" y="580"/>
      <point x="140" y="577"/>
      <point x="140" y="529" type="curve" smooth="yes"/>
      <point x="140" y="125" type="line" smooth="yes"/>
      <point x="140" y="81"/>
      <point x="111" y="63"/>
      <point x="70" y="54" type="curve" smooth="yes"/>
      <point x="55" y="51"/>
      <point x="37" y="43"/>
      <point x="37" y="19" type="curve" smooth="yes"/>
      <point x="37" y="5"/>
      <point x="47" y="-5"/>
    </contour>
  </outline>
</glyph>
<glyph name="O" format="1">
  <advance width="763"/>
  <unicode hex="004F"/>
  <outline>
    <contour>
      <point x="377" y="-14" type="curve" smooth="yes"/>
      <point x="599" y="-14"/>
      <point x="718" y="155"/>
      <point x="718" y="335" type="curve" smooth="yes"/>
      <point x="718" y="532"/>
      <point x="562" y="664"/>
      <point x="386" y="664" type="curve" smooth="yes"/>
      <point x="164" y="664"/>
      <point x="45" y="495"/>
      <point x="45" y="315" type="curve" smooth="yes"/>
      <point x="45" y="118"/>
      <point x="201" y="-14"/>
    </contour>
    <contour>
      <point x="392" y="68" type="curve" smooth="yes"/>
      <point x="225" y="68"/>
      <point x="141" y="200"/>
      <point x="141" y="359" type="curve" smooth="yes"/>
      <point x="141" y="492"/>
      <point x="219" y="580"/>
      <point x="370" y="580" type="curve" smooth="yes"/>
      <point x="537" y="580"/>
      <point x="622" y="450"/>
      <point x="622" y="292" type="curve" smooth="yes"/>
      <point x="622" y="157"/>
      <point x="545" y="68"/>
    </contour>
  </outline>
</glyph>
<glyph name="P" format="1">
  <advance width="552"/>
  <unicode hex="0050"/>
  <outline>
    <contour>
      <point x="48" y="-5" type="curve" smooth="yes"/>
      <point x="102" y="-5"/>
      <point x="126" y="5"/>
      <point x="176" y="5" type="curve" smooth="yes"/>
      <point x="222" y="5"/>
      <point x="239" y="-5"/>
      <point x="293" y="-5" type="curve" smooth="yes"/>
      <point x="310" y="-5"/>
      <point x="322" y="1"/>
      <point x="322" y="17" type="curve" smooth="yes"/>
      <point x="322" y="35"/>
      <point x="312" y="45"/>
      <point x="289" y="53" type="curve" smooth="yes"/>
      <point x="239" y="64"/>
      <point x="210" y="87"/>
      <point x="210" y="145" type="curve" smooth="yes"/>
      <point x="210" y="555" type="line" smooth="yes"/>
      <point x="210" y="577"/>
      <point x="236" y="586"/>
      <point x="274" y="586" type="curve" smooth="yes"/>
      <point x="371" y="586"/>
      <point x="441" y="548"/>
      <point x="441" y="469" type="curve" smooth="yes"/>
      <point x="441" y="381"/>
      <point x="400" y="329"/>
      <point x="320" y="329" type="curve" smooth="yes"/>
      <point x="303" y="329"/>
      <point x="294" y="330"/>
      <point x="283" y="330" type="curve" smooth="yes"/>
      <point x="269" y="330"/>
      <point x="258" y="310"/>
      <point x="258" y="298" type="curve" smooth="yes"/>
      <point x="258" y="279"/>
      <point x="274" y="254"/>
      <point x="303" y="254" type="curve" smooth="yes"/>
      <point x="456" y="254"/>
      <point x="527" y="357"/>
      <point x="527" y="480" type="curve" smooth="yes"/>
      <point x="527" y="592"/>
      <point x="426" y="658"/>
      <point x="274" y="658" type="curve" smooth="yes"/>
      <point x="246" y="658"/>
      <point x="203" y="652"/>
      <point x="163" y="652" type="curve" smooth="yes"/>
      <point x="122" y="652"/>
      <point x="119" y="653"/>
      <point x="65" y="653" type="curve" smooth="yes"/>
      <point x="46" y="653"/>
      <point x="33" y="645"/>
      <point x="33" y="628" type="curve" smooth="yes"/>
      <point x="33" y="609"/>
      <point x="46" y="598"/>
      <point x="69" y="590" type="curve" smooth="yes"/>
      <point x="119" y="571"/>
      <point x="130" y="547"/>
      <point x="130" y="500" type="curve" smooth="yes"/>
      <point x="130" y="145" type="line" smooth="yes"/>
      <point x="130" y="87"/>
      <point x="102" y="64"/>
      <point x="52" y="53" type="curve" smooth="yes"/>
      <point x="29" y="45"/>
      <point x="19" y="35"/>
      <point x="19" y="17" type="curve" smooth="yes"/>
      <point x="19" y="1"/>
      <point x="31" y="-5"/>
    </contour>
  </outline>
</glyph>
<glyph name="Q" format="1">
  <advance width="763"/>
  <unicode hex="0051"/>
  <outline>
    <contour>
      <point x="744" y="-248" type="curve" smooth="yes"/>
      <point x="781" y="-248"/>
      <point x="823" y="-238"/>
      <point x="861" y="-215" type="curve" smooth="yes"/>
      <point x="876" y="-206"/>
      <point x="879" y="-196"/>
      <point x="879" y="-184" type="curve" smooth="yes"/>
      <point x="879" y="-178"/>
      <point x="867" y="-169"/>
      <point x="861" y="-169" type="curve" smooth="yes"/>
      <point x="855" y="-169"/>
      <point x="848" y="-171"/>
      <point x="842" y="-173" type="curve"/>
      <point x="821" y="-182"/>
      <point x="796" y="-186"/>
      <point x="769" y="-185" type="curve" smooth="yes"/>
      <point x="709" y="-184"/>
      <point x="642" y="-161"/>
      <point x="598" y="-129" type="curve" smooth="yes"/>
      <point x="548" y="-93"/>
      <point x="510" y="-60"/>
      <point x="471" y="-18" type="curve"/>
      <point x="468" y="-15"/>
      <point x="467" y="-12"/>
      <point x="467" y="-9" type="curve" smooth="yes"/>
      <point x="467" y="-7"/>
      <point x="468" y="-4"/>
      <point x="475" y="-2" type="curve" smooth="yes"/>
      <point x="633" y="40"/>
      <point x="718" y="184"/>
      <point x="718" y="335" type="curve" smooth="yes"/>
      <point x="718" y="532"/>
      <point x="562" y="664"/>
      <point x="386" y="664" type="curve" smooth="yes"/>
      <point x="164" y="664"/>
      <point x="45" y="495"/>
      <point x="45" y="315" type="curve" smooth="yes"/>
      <point x="45" y="168"/>
      <point x="133" y="57"/>
      <point x="250" y="10" type="curve"/>
      <point x="278" y="-3"/>
      <point x="318" y="-15"/>
      <point x="365" y="-54" type="curve" smooth="yes"/>
      <point x="430" y="-108"/>
      <point x="471" y="-136"/>
      <point x="523" y="-173" type="curve" smooth="yes"/>
      <point x="587" y="-219"/>
      <point x="648" y="-248"/>
    </contour>
    <contour>
      <point x="392" y="68" type="curve" smooth="yes"/>
      <point x="225" y="68"/>
      <point x="141" y="200"/>
      <point x="141" y="359" type="curve" smooth="yes"/>
      <point x="141" y="492"/>
      <point x="219" y="580"/>
      <point x="370" y="580" type="curve" smooth="yes"/>
      <point x="537" y="580"/>
      <point x="622" y="450"/>
      <point x="622" y="292" type="curve" smooth="yes"/>
      <point x="622" y="157"/>
      <point x="545" y="68"/>
    </contour>
  </outline>
</glyph>
<glyph name="R" format="1">
  <advance width="713"/>
  <unicode hex="0052"/>
  <outline>
    <contour>
      <point x="637" y="-21" type="curve" smooth="yes"/>
      <point x="662" y="-21"/>
      <point x="718" y="-15"/>
      <point x="718" y="35" type="curve" smooth="yes"/>
      <point x="718" y="49"/>
      <point x="713" y="52"/>
      <point x="703" y="52" type="curve" smooth="yes"/>
      <point x="656" y="52"/>
      <point x="623" y="53"/>
      <point x="588" y="82" type="curve" smooth="yes"/>
      <point x="494" y="159"/>
      <point x="447" y="227"/>
      <point x="385" y="312" type="curve" smooth="yes"/>
      <point x="381" y="318"/>
      <point x="380" y="323"/>
      <point x="385" y="325" type="curve"/>
      <point x="440" y="353"/>
      <point x="503" y="403"/>
      <point x="503" y="493" type="curve" smooth="yes"/>
      <point x="503" y="602"/>
      <point x="424" y="657"/>
      <point x="278" y="657" type="curve" smooth="yes"/>
      <point x="220" y="657"/>
      <point x="201" y="652"/>
      <point x="163" y="652" type="curve" smooth="yes"/>
      <point x="125" y="652"/>
      <point x="114" y="657"/>
      <point x="66" y="657" type="curve" smooth="yes"/>
      <point x="49" y="657"/>
      <point x="37" y="647"/>
      <point x="37" y="631" type="curve" smooth="yes"/>
      <point x="37" y="613"/>
      <point x="46" y="607"/>
      <point x="69" y="599" type="curve" smooth="yes"/>
      <point x="117" y="583"/>
      <point x="130" y="568"/>
      <point x="130" y="513" type="curve" smooth="yes"/>
      <point x="130" y="143" type="line" smooth="yes"/>
      <point x="130" y="85"/>
      <point x="119" y="64"/>
      <point x="69" y="53" type="curve" smooth="yes"/>
      <point x="46" y="45"/>
      <point x="37" y="39"/>
      <point x="37" y="21" type="curve" smooth="yes"/>
      <point x="37" y="5"/>
      <point x="49" y="-5"/>
      <point x="66" y="-5" type="curve" smooth="yes"/>
      <point x="120" y="-5"/>
      <point x="133" y="5"/>
      <point x="176" y="5" type="curve" smooth="yes"/>
      <point x="222" y="5"/>
      <point x="239" y="-5"/>
      <point x="293" y="-5" type="curve" smooth="yes"/>
      <point x="310" y="-5"/>
      <point x="322" y="5"/>
      <point x="322" y="21" type="curve" smooth="yes"/>
      <point x="322" y="39"/>
      <point x="313" y="45"/>
      <point x="290" y="53" type="curve" smooth="yes"/>
      <point x="244" y="63"/>
      <point x="210" y="101"/>
      <point x="210" y="151" type="curve" smooth="yes"/>
      <point x="210" y="274" type="line" smooth="yes"/>
      <point x="210" y="286"/>
      <point x="214" y="294"/>
      <point x="225" y="293" type="curve" smooth="yes"/>
      <point x="243" y="291"/>
      <point x="275" y="286"/>
      <point x="304" y="273" type="curve" smooth="yes"/>
      <point x="324" y="263"/>
      <point x="336" y="253"/>
      <point x="347" y="235" type="curve" smooth="yes"/>
      <point x="416" y="128"/>
      <point x="450" y="89"/>
      <point x="499" y="31" type="curve" smooth="yes"/>
      <point x="534" y="-10"/>
      <point x="580" y="-21"/>
    </contour>
    <contour>
      <point x="263" y="366" type="curve" smooth="yes"/>
      <point x="230" y="366"/>
      <point x="210" y="367"/>
      <point x="210" y="391" type="curve" smooth="yes"/>
      <point x="210" y="448"/>
      <point x="211" y="489"/>
      <point x="212" y="512" type="curve" smooth="yes"/>
      <point x="215" y="562"/>
      <point x="223" y="579"/>
      <point x="266" y="579" type="curve" smooth="yes"/>
      <point x="392" y="579"/>
      <point x="413" y="530"/>
      <point x="413" y="472" type="curve" smooth="yes"/>
      <point x="413" y="416"/>
      <point x="355" y="366"/>
    </contour>
  </outline>
</glyph>
<glyph name="S" format="1">
  <advance width="465"/>
  <unicode hex="0053"/>
  <outline>
    <contour>
      <point x="204" y="-16" type="curve" smooth="yes"/>
      <point x="335" y="-16"/>
      <point x="422" y="61"/>
      <point x="422" y="180" type="curve" smooth="yes"/>
      <point x="422" y="280"/>
      <point x="347" y="327"/>
      <point x="277" y="370" type="curve" smooth="yes"/>
      <point x="214" y="407"/>
      <point x="159" y="439"/>
      <point x="159" y="488" type="curve" smooth="yes"/>
      <point x="159" y="556"/>
      <point x="205" y="580"/>
      <point x="256" y="580" type="curve" smooth="yes"/>
      <point x="306" y="580"/>
      <point x="339" y="553"/>
      <point x="355" y="500" type="curve" smooth="yes"/>
      <point x="360" y="483"/>
      <point x="375" y="482"/>
      <point x="387" y="482" type="curve" smooth="yes"/>
      <point x="395" y="482"/>
      <point x="415" y="484"/>
      <point x="415" y="501" type="curve" smooth="yes"/>
      <point x="415" y="531"/>
      <point x="403" y="580"/>
      <point x="395" y="615" type="curve" smooth="yes"/>
      <point x="392" y="627"/>
      <point x="384" y="638"/>
      <point x="374" y="642" type="curve" smooth="yes"/>
      <point x="352" y="651"/>
      <point x="317" y="664"/>
      <point x="269" y="664" type="curve" smooth="yes"/>
      <point x="128" y="664"/>
      <point x="60" y="583"/>
      <point x="60" y="482" type="curve" smooth="yes"/>
      <point x="60" y="385"/>
      <point x="147" y="340"/>
      <point x="225" y="291" type="curve"/>
      <point x="289" y="255"/>
      <point x="326" y="234"/>
      <point x="326" y="166" type="curve" smooth="yes"/>
      <point x="326" y="105"/>
      <point x="281" y="66"/>
      <point x="219" y="66" type="curve" smooth="yes"/>
      <point x="169" y="66"/>
      <point x="117" y="92"/>
      <point x="94" y="160" type="curve" smooth="yes"/>
      <point x="90" y="171"/>
      <point x="81" y="177"/>
      <point x="68" y="177" type="curve" smooth="yes"/>
      <point x="51" y="177"/>
      <point x="38" y="167"/>
      <point x="40" y="157" type="curve" smooth="yes"/>
      <point x="42" y="129"/>
      <point x="43" y="79"/>
      <point x="50" y="52" type="curve" smooth="yes"/>
      <point x="52" y="44"/>
      <point x="58" y="37"/>
      <point x="63" y="32" type="curve"/>
      <point x="100" y="1"/>
      <point x="148" y="-16"/>
    </contour>
  </outline>
</glyph>
<glyph name="T" format="1">
  <advance width="670"/>
  <unicode hex="0054"/>
  <outline>
    <contour>
      <point x="214" y="-5" type="curve" smooth="yes"/>
      <point x="268" y="-5"/>
      <point x="292" y="0"/>
      <point x="342" y="0" type="curve" smooth="yes"/>
      <point x="388" y="0"/>
      <point x="405" y="-5"/>
      <point x="459" y="-5" type="curve" smooth="yes"/>
      <point x="476" y="-5"/>
      <point x="488" y="1"/>
      <point x="488" y="17" type="curve" smooth="yes"/>
      <point x="488" y="35"/>
      <point x="478" y="45"/>
      <point x="443" y="53" type="curve" smooth="yes"/>
      <point x="405" y="62"/>
      <point x="376" y="83"/>
      <point x="376" y="131" type="curve" smooth="yes"/>
      <point x="376" y="451" type="line" smooth="yes"/>
      <point x="376" y="561"/>
      <point x="381" y="566"/>
      <point x="426" y="566" type="curve" smooth="yes"/>
      <point x="492" y="566" type="line" smooth="yes"/>
      <point x="556" y="566"/>
      <point x="579" y="548"/>
      <point x="584" y="520" type="curve"/>
      <point x="594" y="494"/>
      <point x="602" y="479"/>
      <point x="622" y="479" type="curve" smooth="yes"/>
      <point x="642" y="479"/>
      <point x="654" y="499"/>
      <point x="654" y="511" type="curve" smooth="yes"/>
      <point x="654" y="528" type="line" smooth="yes"/>
      <point x="654" y="566"/>
      <point x="658" y="560"/>
      <point x="664" y="614" type="curve" smooth="yes"/>
      <point x="665" y="622"/>
      <point x="668" y="644"/>
      <point x="668" y="654" type="curve" smooth="yes"/>
      <point x="668" y="664"/>
      <point x="662" y="677"/>
      <point x="654" y="677" type="curve" smooth="yes"/>
      <point x="622" y="677"/>
      <point x="608" y="667"/>
      <point x="576" y="657" type="curve" smooth="yes"/>
      <point x="553" y="650"/>
      <point x="527" y="642"/>
      <point x="481" y="642" type="curve" smooth="yes"/>
      <point x="217" y="642" type="line" smooth="yes"/>
      <point x="189" y="642"/>
      <point x="162" y="649"/>
      <point x="147" y="662" type="curve" smooth="yes"/>
      <point x="133" y="674"/>
      <point x="107" y="694"/>
      <point x="93" y="694" type="curve" smooth="yes"/>
      <point x="80" y="694"/>
      <point x="65" y="685"/>
      <point x="63" y="662" type="curve" smooth="yes"/>
      <point x="58" y="604"/>
      <point x="51" y="569"/>
      <point x="31" y="516" type="curve" smooth="yes"/>
      <point x="29" y="508"/>
      <point x="27" y="502"/>
      <point x="27" y="496" type="curve" smooth="yes"/>
      <point x="27" y="487"/>
      <point x="36" y="481"/>
      <point x="46" y="481" type="curve" smooth="yes"/>
      <point x="71" y="481"/>
      <point x="93" y="512"/>
      <point x="101" y="527" type="curve" smooth="yes"/>
      <point x="114" y="551"/>
      <point x="141" y="566"/>
      <point x="167" y="566" type="curve" smooth="yes"/>
      <point x="204" y="566" type="line" smooth="yes"/>
      <point x="238" y="566"/>
      <point x="256" y="566"/>
      <point x="275" y="562" type="curve" smooth="yes"/>
      <point x="291" y="559"/>
      <point x="296" y="537"/>
      <point x="296" y="446" type="curve" smooth="yes"/>
      <point x="296" y="131" type="line" smooth="yes"/>
      <point x="296" y="83"/>
      <point x="268" y="62"/>
      <point x="227" y="52" type="curve" smooth="yes"/>
      <point x="195" y="45"/>
      <point x="185" y="35"/>
      <point x="185" y="17" type="curve" smooth="yes"/>
      <point x="185" y="1"/>
      <point x="197" y="-5"/>
    </contour>
  </outline>
</glyph>
<glyph name="U" format="1">
  <advance width="738"/>
  <unicode hex="0055"/>
  <outline>
    <contour>
      <point x="379" y="-14" type="curve" smooth="yes"/>
      <point x="530" y="-14"/>
      <point x="644" y="95"/>
      <point x="649" y="250" type="curve" smooth="yes"/>
      <point x="652" y="342"/>
      <point x="653" y="400"/>
      <point x="659" y="515" type="curve" smooth="yes"/>
      <point x="660" y="555"/>
      <point x="672" y="577"/>
      <point x="695" y="590" type="curve" smooth="yes"/>
      <point x="719" y="603"/>
      <point x="728" y="612"/>
      <point x="728" y="630" type="curve" smooth="yes"/>
      <point x="728" y="646"/>
      <point x="716" y="652"/>
      <point x="699" y="652" type="curve" smooth="yes"/>
      <point x="674" y="652"/>
      <point x="646" y="649"/>
      <point x="611" y="649" type="curve" smooth="yes"/>
      <point x="579" y="649"/>
      <point x="562" y="650"/>
      <point x="529" y="650" type="curve" smooth="yes"/>
      <point x="512" y="650"/>
      <point x="500" y="644"/>
      <point x="500" y="628" type="curve" smooth="yes"/>
      <point x="500" y="610"/>
      <point x="518" y="595"/>
      <point x="533" y="588" type="curve" smooth="yes"/>
      <point x="561" y="575"/>
      <point x="573" y="530"/>
      <point x="574" y="479" type="curve" smooth="yes"/>
      <point x="576" y="402"/>
      <point x="578" y="340"/>
      <point x="578" y="296" type="curve" smooth="yes"/>
      <point x="578" y="157"/>
      <point x="518" y="64"/>
      <point x="386" y="64" type="curve" smooth="yes"/>
      <point x="268" y="64"/>
      <point x="183" y="128"/>
      <point x="183" y="271" type="curve" smooth="yes"/>
      <point x="183" y="518" type="line" smooth="yes"/>
      <point x="183" y="558"/>
      <point x="209" y="581"/>
      <point x="225" y="590" type="curve" smooth="yes"/>
      <point x="246" y="602"/>
      <point x="258" y="612"/>
      <point x="258" y="630" type="curve" smooth="yes"/>
      <point x="258" y="646"/>
      <point x="246" y="652"/>
      <point x="229" y="652" type="curve" smooth="yes"/>
      <point x="208" y="652"/>
      <point x="180" y="650"/>
      <point x="149" y="650" type="curve" smooth="yes"/>
      <point x="112" y="650"/>
      <point x="83" y="653"/>
      <point x="53" y="653" type="curve" smooth="yes"/>
      <point x="36" y="653"/>
      <point x="24" y="647"/>
      <point x="24" y="631" type="curve" smooth="yes"/>
      <point x="24" y="613"/>
      <point x="34" y="602"/>
      <point x="57" y="587" type="curve" smooth="yes"/>
      <point x="76" y="575"/>
      <point x="103" y="562"/>
      <point x="103" y="514" type="curve" smooth="yes"/>
      <point x="103" y="240" type="line" smooth="yes"/>
      <point x="103" y="87"/>
      <point x="195" y="-14"/>
    </contour>
  </outline>
</glyph>
<glyph name="V" format="1">
  <advance width="664"/>
  <unicode hex="0056"/>
  <outline>
    <contour>
      <point x="329" y="-12" type="curve" smooth="yes"/>
      <point x="334" y="-12"/>
      <point x="342" y="-9"/>
      <point x="345" y="-5" type="curve" smooth="yes"/>
      <point x="362" y="18"/>
      <point x="377" y="52"/>
      <point x="387" y="79" type="curve" smooth="yes"/>
      <point x="549" y="507" type="line" smooth="yes"/>
      <point x="571" y="564"/>
      <point x="599" y="588"/>
      <point x="648" y="599" type="curve" smooth="yes"/>
      <point x="670" y="604"/>
      <point x="678" y="614"/>
      <point x="678" y="630" type="curve" smooth="yes"/>
      <point x="678" y="644"/>
      <point x="666" y="653"/>
      <point x="649" y="653" type="curve" smooth="yes"/>
      <point x="623" y="653"/>
      <point x="574" y="650"/>
      <point x="535" y="650" type="curve" smooth="yes"/>
      <point x="497" y="650"/>
      <point x="462" y="651"/>
      <point x="436" y="651" type="curve" smooth="yes"/>
      <point x="419" y="651"/>
      <point x="407" y="646"/>
      <point x="407" y="632" type="curve" smooth="yes"/>
      <point x="407" y="617"/>
      <point x="414" y="606"/>
      <point x="445" y="601" type="curve" smooth="yes"/>
      <point x="477" y="596"/>
      <point x="496" y="572"/>
      <point x="474" y="513" type="curve" smooth="yes"/>
      <point x="342" y="161" type="line" smooth="yes"/>
      <point x="339" y="152"/>
      <point x="333" y="155"/>
      <point x="331" y="160" type="curve" smooth="yes"/>
      <point x="201" y="519" type="line" smooth="yes"/>
      <point x="198" y="528"/>
      <point x="191" y="544"/>
      <point x="191" y="565" type="curve" smooth="yes"/>
      <point x="191" y="584"/>
      <point x="218" y="595"/>
      <point x="245" y="598" type="curve" smooth="yes"/>
      <point x="273" y="602"/>
      <point x="282" y="615"/>
      <point x="282" y="631" type="curve" smooth="yes"/>
      <point x="282" y="644"/>
      <point x="270" y="652"/>
      <point x="253" y="652" type="curve" smooth="yes"/>
      <point x="233" y="652"/>
      <point x="191" y="650"/>
      <point x="151" y="650" type="curve" smooth="yes"/>
      <point x="105" y="650"/>
      <point x="60" y="653"/>
      <point x="29" y="653" type="curve" smooth="yes"/>
      <point x="12" y="653"/>
      <point x="0" y="648"/>
      <point x="0" y="635" type="curve" smooth="yes"/>
      <point x="0" y="620"/>
      <point x="14" y="611"/>
      <point x="41" y="599" type="curve" smooth="yes"/>
      <point x="82" y="583"/>
      <point x="101" y="549"/>
      <point x="112" y="519" type="curve" smooth="yes"/>
      <point x="283" y="56" type="line" smooth="yes"/>
      <point x="290" y="37"/>
      <point x="301" y="10"/>
      <point x="310" y="-5" type="curve" smooth="yes"/>
      <point x="313" y="-10"/>
      <point x="323" y="-12"/>
    </contour>
  </outline>
</glyph>
<glyph name="W" format="1">
  <advance width="916"/>
  <unicode hex="0057"/>
  <outline>
    <contour>
      <point x="345" y="-16"/>
      <point x="358" y="0"/>
      <point x="365" y="15" type="curve" smooth="yes"/>
      <point x="413" y="120"/>
      <point x="439" y="166"/>
      <point x="482" y="279" type="curve" smooth="yes"/>
      <point x="487" y="292"/>
      <point x="489" y="294"/>
      <point x="493" y="285" type="curve"/>
      <point x="540" y="168"/>
      <point x="555" y="126"/>
      <point x="597" y="7" type="curve" smooth="yes"/>
      <point x="601" y="-3"/>
      <point x="614" y="-12"/>
      <point x="621" y="-12" type="curve" smooth="yes"/>
      <point x="633" y="-12"/>
      <point x="647" y="0"/>
      <point x="651" y="11" type="curve" smooth="yes"/>
      <point x="814" y="501" type="line" smooth="yes"/>
      <point x="824" y="532"/>
      <point x="841" y="582"/>
      <point x="892" y="596" type="curve" smooth="yes"/>
      <point x="920" y="603"/>
      <point x="930" y="614"/>
      <point x="930" y="632" type="curve" smooth="yes"/>
      <point x="930" y="647"/>
      <point x="918" y="653"/>
      <point x="901" y="653" type="curve" smooth="yes"/>
      <point x="876" y="653"/>
      <point x="844" y="647"/>
      <point x="811" y="647" type="curve" smooth="yes"/>
      <point x="785" y="647"/>
      <point x="765" y="649"/>
      <point x="739" y="649" type="curve" smooth="yes"/>
      <point x="722" y="649"/>
      <point x="710" y="643"/>
      <point x="710" y="628" type="curve" smooth="yes"/>
      <point x="710" y="610"/>
      <point x="720" y="600"/>
      <point x="731" y="592" type="curve" smooth="yes"/>
      <point x="745" y="584"/>
      <point x="754" y="574"/>
      <point x="754" y="555" type="curve" smooth="yes"/>
      <point x="754" y="544"/>
      <point x="752" y="531"/>
      <point x="746" y="513" type="curve" smooth="yes"/>
      <point x="707" y="405"/>
      <point x="662" y="266"/>
      <point x="631" y="176" type="curve"/>
      <point x="627" y="167"/>
      <point x="623" y="163"/>
      <point x="620" y="170" type="curve" smooth="yes"/>
      <point x="545" y="377" type="line" smooth="yes"/>
      <point x="542" y="384"/>
      <point x="547" y="405"/>
      <point x="551" y="415" type="curve" smooth="yes"/>
      <point x="568" y="458"/>
      <point x="593" y="517"/>
      <point x="604" y="536" type="curve" smooth="yes"/>
      <point x="630" y="578"/>
      <point x="638" y="591"/>
      <point x="669" y="600" type="curve" smooth="yes"/>
      <point x="691" y="606"/>
      <point x="701" y="618"/>
      <point x="701" y="634" type="curve" smooth="yes"/>
      <point x="701" y="648"/>
      <point x="690" y="653"/>
      <point x="676" y="653" type="curve" smooth="yes"/>
      <point x="648" y="653"/>
      <point x="626" y="648"/>
      <point x="603" y="648" type="curve" smooth="yes"/>
      <point x="584" y="648"/>
      <point x="570" y="651"/>
      <point x="541" y="651" type="curve" smooth="yes"/>
      <point x="524" y="651"/>
      <point x="512" y="646"/>
      <point x="512" y="632" type="curve" smooth="yes"/>
      <point x="512" y="611"/>
      <point x="537" y="608"/>
      <point x="537" y="579" type="curve" smooth="yes"/>
      <point x="537" y="577"/>
      <point x="536" y="571"/>
      <point x="535" y="568" type="curve" smooth="yes"/>
      <point x="529" y="551"/>
      <point x="524" y="539"/>
      <point x="508" y="503" type="curve" smooth="yes"/>
      <point x="500" y="485"/>
      <point x="497" y="487"/>
      <point x="490" y="503" type="curve" smooth="yes"/>
      <point x="482" y="522"/>
      <point x="465" y="562"/>
      <point x="461" y="574" type="curve" smooth="yes"/>
      <point x="460" y="577"/>
      <point x="459" y="580"/>
      <point x="459" y="583" type="curve" smooth="yes"/>
      <point x="459" y="609"/>
      <point x="494" y="611"/>
      <point x="494" y="630" type="curve" smooth="yes"/>
      <point x="494" y="645"/>
      <point x="482" y="652"/>
      <point x="465" y="652" type="curve" smooth="yes"/>
      <point x="445" y="652"/>
      <point x="418" y="650"/>
      <point x="388" y="650" type="curve" smooth="yes"/>
      <point x="352" y="650"/>
      <point x="325" y="653"/>
      <point x="294" y="653" type="curve" smooth="yes"/>
      <point x="277" y="653"/>
      <point x="265" y="647"/>
      <point x="265" y="632" type="curve" smooth="yes"/>
      <point x="265" y="615"/>
      <point x="277" y="602"/>
      <point x="307" y="593" type="curve" smooth="yes"/>
      <point x="336" y="584"/>
      <point x="386" y="555"/>
      <point x="402" y="516" type="curve" smooth="yes"/>
      <point x="443" y="416" type="line" smooth="yes"/>
      <point x="448" y="403"/>
      <point x="451" y="395"/>
      <point x="451" y="387" type="curve" smooth="yes"/>
      <point x="451" y="381"/>
      <point x="450" y="374"/>
      <point x="445" y="364" type="curve" smooth="yes"/>
      <point x="359" y="188" type="line" smooth="yes"/>
      <point x="354" y="177"/>
      <point x="351" y="174"/>
      <point x="344" y="189" type="curve" smooth="yes"/>
      <point x="278" y="339"/>
      <point x="265" y="370"/>
      <point x="201" y="526" type="curve" smooth="yes"/>
      <point x="195" y="540"/>
      <point x="194" y="553"/>
      <point x="194" y="565" type="curve" smooth="yes"/>
      <point x="194" y="579"/>
      <point x="197" y="591"/>
      <point x="207" y="595" type="curve"/>
      <point x="230" y="606"/>
      <point x="240" y="615"/>
      <point x="240" y="632" type="curve" smooth="yes"/>
      <point x="240" y="647"/>
      <point x="228" y="652"/>
      <point x="211" y="652" type="curve" smooth="yes"/>
      <point x="191" y="652"/>
      <point x="155" y="650"/>
      <point x="118" y="650" type="curve" smooth="yes"/>
      <point x="84" y="650"/>
      <point x="60" y="653"/>
      <point x="29" y="653" type="curve" smooth="yes"/>
      <point x="12" y="653"/>
      <point x="0" y="647"/>
      <point x="0" y="633" type="curve" smooth="yes"/>
      <point x="0" y="616"/>
      <point x="11" y="603"/>
      <point x="47" y="589" type="curve" smooth="yes"/>
      <point x="73" y="579"/>
      <point x="99" y="558"/>
      <point x="118" y="521" type="curve"/>
      <point x="313" y="12" type="line" smooth="yes"/>
      <point x="318" y="-2"/>
      <point x="329" y="-16"/>
      <point x="333" y="-16" type="curve" smooth="yes"/>
    </contour>
  </outline>
</glyph>
<glyph name="X" format="1">
  <advance width="707"/>
  <unicode hex="0058"/>
  <outline>
    <contour>
      <point x="24" y="-5" type="curve" smooth="yes"/>
      <point x="57" y="-5"/>
      <point x="105" y="1"/>
      <point x="150" y="1" type="curve" smooth="yes"/>
      <point x="186" y="1"/>
      <point x="221" y="-1"/>
      <point x="239" y="-1" type="curve" smooth="yes"/>
      <point x="256" y="-1"/>
      <point x="268" y="9"/>
      <point x="268" y="25" type="curve" smooth="yes"/>
      <point x="268" y="41"/>
      <point x="258" y="47"/>
      <point x="240" y="56" type="curve" smooth="yes"/>
      <point x="226" y="63"/>
      <point x="222" y="73"/>
      <point x="222" y="82" type="curve" smooth="yes"/>
      <point x="222" y="89"/>
      <point x="225" y="97"/>
      <point x="231" y="105" type="curve" smooth="yes"/>
      <point x="343" y="253" type="line" smooth="yes"/>
      <point x="350" y="262"/>
      <point x="355" y="262"/>
      <point x="365" y="248" type="curve" smooth="yes"/>
      <point x="447" y="134" type="line"/>
      <point x="456" y="119"/>
      <point x="459" y="109"/>
      <point x="459" y="100" type="curve" smooth="yes"/>
      <point x="459" y="77"/>
      <point x="442" y="62"/>
      <point x="428" y="56" type="curve" smooth="yes"/>
      <point x="414" y="49"/>
      <point x="395" y="44"/>
      <point x="395" y="28" type="curve" smooth="yes"/>
      <point x="395" y="12"/>
      <point x="407" y="0"/>
      <point x="424" y="0" type="curve" smooth="yes"/>
      <point x="448" y="0"/>
      <point x="486" y="1"/>
      <point x="527" y="1" type="curve" smooth="yes"/>
      <point x="574" y="1"/>
      <point x="642" y="-5"/>
      <point x="670" y="-5" type="curve" smooth="yes"/>
      <point x="687" y="-5"/>
      <point x="699" y="0"/>
      <point x="699" y="15" type="curve" smooth="yes"/>
      <point x="699" y="31"/>
      <point x="689" y="41"/>
      <point x="656" y="52" type="curve" smooth="yes"/>
      <point x="621" y="63"/>
      <point x="573" y="91"/>
      <point x="540" y="138" type="curve" smooth="yes"/>
      <point x="412" y="322" type="line"/>
      <point x="405" y="337"/>
      <point x="409" y="341"/>
      <point x="426" y="362" type="curve" smooth="yes"/>
      <point x="544" y="508" type="line" smooth="yes"/>
      <point x="582" y="556"/>
      <point x="642" y="589"/>
      <point x="666" y="597" type="curve" smooth="yes"/>
      <point x="695" y="607"/>
      <point x="705" y="615"/>
      <point x="705" y="631" type="curve" smooth="yes"/>
      <point x="705" y="645"/>
      <point x="693" y="657"/>
      <point x="676" y="657" type="curve" smooth="yes"/>
      <point x="643" y="657"/>
      <point x="595" y="651"/>
      <point x="550" y="651" type="curve" smooth="yes"/>
      <point x="514" y="651"/>
      <point x="459" y="653"/>
      <point x="441" y="653" type="curve" smooth="yes"/>
      <point x="424" y="653"/>
      <point x="412" y="643"/>
      <point x="412" y="627" type="curve" smooth="yes"/>
      <point x="412" y="611"/>
      <point x="422" y="599"/>
      <point x="440" y="596" type="curve" smooth="yes"/>
      <point x="458" y="593"/>
      <point x="482" y="586"/>
      <point x="482" y="570" type="curve" smooth="yes"/>
      <point x="482" y="563"/>
      <point x="479" y="555"/>
      <point x="473" y="547" type="curve" smooth="yes"/>
      <point x="373" y="415" type="line" smooth="yes"/>
      <point x="363" y="402"/>
      <point x="358" y="399"/>
      <point x="345" y="418" type="curve" smooth="yes"/>
      <point x="273" y="520" type="line"/>
      <point x="262" y="533"/>
      <point x="260" y="542"/>
      <point x="260" y="551" type="curve" smooth="yes"/>
      <point x="260" y="574"/>
      <point x="277" y="588"/>
      <point x="291" y="595" type="curve" smooth="yes"/>
      <point x="305" y="602"/>
      <point x="324" y="607"/>
      <point x="324" y="623" type="curve" smooth="yes"/>
      <point x="324" y="639"/>
      <point x="312" y="651"/>
      <point x="295" y="651" type="curve" smooth="yes"/>
      <point x="271" y="651"/>
      <point x="233" y="650"/>
      <point x="192" y="650" type="curve" smooth="yes"/>
      <point x="145" y="650"/>
      <point x="77" y="656"/>
      <point x="49" y="656" type="curve" smooth="yes"/>
      <point x="32" y="656"/>
      <point x="20" y="651"/>
      <point x="20" y="636" type="curve" smooth="yes"/>
      <point x="20" y="620"/>
      <point x="30" y="609"/>
      <point x="63" y="599" type="curve" smooth="yes"/>
      <point x="98" y="588"/>
      <point x="146" y="560"/>
      <point x="179" y="513" type="curve" smooth="yes"/>
      <point x="286" y="361" type="line" smooth="yes"/>
      <point x="305" y="334"/>
      <point x="295" y="319"/>
      <point x="281" y="300" type="curve"/>
      <point x="156" y="144" type="line" smooth="yes"/>
      <point x="118" y="96"/>
      <point x="58" y="63"/>
      <point x="34" y="55" type="curve" smooth="yes"/>
      <point x="5" y="45"/>
      <point x="-5" y="37"/>
      <point x="-5" y="21" type="curve" smooth="yes"/>
      <point x="-5" y="7"/>
      <point x="7" y="-5"/>
    </contour>
  </outline>
</glyph>
<glyph name="Y" format="1">
  <advance width="578"/>
  <unicode hex="0059"/>
  <outline>
    <contour>
      <point x="182" y="-5" type="curve" smooth="yes"/>
      <point x="236" y="-5"/>
      <point x="260" y="0"/>
      <point x="310" y="0" type="curve" smooth="yes"/>
      <point x="356" y="0"/>
      <point x="373" y="-5"/>
      <point x="427" y="-5" type="curve" smooth="yes"/>
      <point x="444" y="-5"/>
      <point x="456" y="1"/>
      <point x="456" y="17" type="curve" smooth="yes"/>
      <point x="456" y="35"/>
      <point x="446" y="45"/>
      <point x="423" y="50" type="curve" smooth="yes"/>
      <point x="373" y="61"/>
      <point x="344" y="96"/>
      <point x="344" y="150" type="curve" smooth="yes"/>
      <point x="344" y="230" type="line" smooth="yes"/>
      <point x="344" y="269"/>
      <point x="343" y="277"/>
      <point x="369" y="320" type="curve" smooth="yes"/>
      <point x="415" y="395"/>
      <point x="443" y="439"/>
      <point x="498" y="522" type="curve" smooth="yes"/>
      <point x="525" y="563"/>
      <point x="540" y="586"/>
      <point x="569" y="592" type="curve" smooth="yes"/>
      <point x="597" y="602"/>
      <point x="621" y="610"/>
      <point x="621" y="625" type="curve" smooth="yes"/>
      <point x="621" y="643"/>
      <point x="613" y="653"/>
      <point x="592" y="653" type="curve" smooth="yes"/>
      <point x="569" y="653"/>
      <point x="529" y="650"/>
      <point x="488" y="650" type="curve" smooth="yes"/>
      <point x="459" y="650"/>
      <point x="423" y="651"/>
      <point x="393" y="651" type="curve" smooth="yes"/>
      <point x="376" y="651"/>
      <point x="364" y="645"/>
      <point x="364" y="631" type="curve" smooth="yes"/>
      <point x="364" y="614"/>
      <point x="383" y="597"/>
      <point x="397" y="593" type="curve" smooth="yes"/>
      <point x="408" y="590"/>
      <point x="421" y="586"/>
      <point x="421" y="565" type="curve" smooth="yes"/>
      <point x="421" y="556"/>
      <point x="419" y="543"/>
      <point x="410" y="525" type="curve" smooth="yes"/>
      <point x="380" y="465"/>
      <point x="366" y="442"/>
      <point x="340" y="402" type="curve" smooth="yes"/>
      <point x="327" y="382"/>
      <point x="320" y="371"/>
      <point x="312" y="371" type="curve" smooth="yes"/>
      <point x="306" y="371"/>
      <point x="298" y="383"/>
      <point x="284" y="409" type="curve" smooth="yes"/>
      <point x="217" y="535" type="line" smooth="yes"/>
      <point x="208" y="551"/>
      <point x="204" y="563"/>
      <point x="204" y="570" type="curve" smooth="yes"/>
      <point x="204" y="584"/>
      <point x="213" y="588"/>
      <point x="225" y="593" type="curve" smooth="yes"/>
      <point x="245" y="601"/>
      <point x="255" y="613"/>
      <point x="255" y="630" type="curve" smooth="yes"/>
      <point x="255" y="645"/>
      <point x="243" y="652"/>
      <point x="226" y="652" type="curve" smooth="yes"/>
      <point x="205" y="652"/>
      <point x="177" y="650"/>
      <point x="146" y="650" type="curve" smooth="yes"/>
      <point x="100" y="650"/>
      <point x="59" y="653"/>
      <point x="29" y="653" type="curve" smooth="yes"/>
      <point x="12" y="653"/>
      <point x="0" y="647"/>
      <point x="0" y="632" type="curve" smooth="yes"/>
      <point x="0" y="615"/>
      <point x="9" y="603"/>
      <point x="39" y="592" type="curve" smooth="yes"/>
      <point x="65" y="582"/>
      <point x="110" y="541"/>
      <point x="122" y="522" type="curve" smooth="yes"/>
      <point x="239" y="330" type="line"/>
      <point x="244" y="321"/>
      <point x="264" y="283"/>
      <point x="264" y="256" type="curve" smooth="yes"/>
      <point x="264" y="150" type="line" smooth="yes"/>
      <point x="264" y="93"/>
      <point x="236" y="61"/>
      <point x="186" y="50" type="curve" smooth="yes"/>
      <point x="163" y="45"/>
      <point x="153" y="35"/>
      <point x="153" y="17" type="curve" smooth="yes"/>
      <point x="153" y="1"/>
      <point x="165" y="-5"/>
    </contour>
  </outline>
</glyph>
<glyph name="asciicircum" format="1">
  <advance width="500"/>
  <unicode hex="005E"/>
  <outline>
    <contour>
      <point x="89" y="282"/>
      <point x="124" y="294"/>
      <point x="139" y="314" type="curve" smooth="yes"/>
      <point x="241" y="451" type="line"/>
      <point x="248" y="460"/>
      <point x="250" y="460"/>
      <point x="258" y="451" type="curve"/>
      <point x="361" y="314" type="line" smooth="yes"/>
      <point x="372" y="299"/>
      <point x="406" y="283"/>
      <point x="430" y="283" type="curve" smooth="yes"/>
      <point x="447" y="283"/>
      <point x="450" y="305"/>
      <point x="441" y="318" type="curve"/>
      <point x="254" y="603" type="line"/>
      <point x="248" y="603" type="line"/>
      <point x="59" y="317" type="line"/>
      <point x="55" y="313"/>
      <point x="53" y="306"/>
      <point x="53" y="300" type="curve" smooth="yes"/>
      <point x="53" y="290"/>
      <point x="60" y="282"/>
      <point x="69" y="282" type="curve" smooth="yes"/>
    </contour>
  </outline>
</glyph>
<glyph name="grave" format="1">
  <advance width="201"/>
  <unicode hex="0060"/>
  <outline>
    <contour>
      <point x="179" y="458"/>
      <point x="185" y="461"/>
      <point x="178" y="482" type="curve" smooth="yes"/>
      <point x="175" y="491"/>
      <point x="172" y="503"/>
      <point x="162" y="519" type="curve" smooth="yes"/>
      <point x="143" y="549"/>
      <point x="115" y="592"/>
      <point x="96" y="622" type="curve" smooth="yes"/>
      <point x="82" y="644"/>
      <point x="73" y="649"/>
      <point x="56" y="649" type="curve" smooth="yes"/>
      <point x="33" y="649"/>
      <point x="16" y="641"/>
      <point x="21" y="624" type="curve" smooth="yes"/>
      <point x="23" y="617"/>
      <point x="29" y="608"/>
      <point x="34" y="599" type="curve" smooth="yes"/>
      <point x="65" y="543"/>
      <point x="74" y="534"/>
      <point x="108" y="494" type="curve" smooth="yes"/>
      <point x="128" y="470"/>
      <point x="152" y="458"/>
      <point x="164" y="458" type="curve" smooth="yes"/>
    </contour>
  </outline>
</glyph>
<glyph name="a" format="1">
  <advance width="399"/>
  <unicode hex="0061"/>
  <outline>
    <contour>
      <point x="117" y="-14" type="curve" smooth="yes"/>
      <point x="160" y="-14"/>
      <point x="198" y="2"/>
      <point x="242" y="38" type="curve"/>
      <point x="245" y="38" type="line"/>
      <point x="263" y="3"/>
      <point x="287" y="-14"/>
      <point x="318" y="-14" type="curve" smooth="yes"/>
      <point x="339" y="-14"/>
      <point x="366" y="0"/>
      <point x="387" y="21" type="curve" smooth="yes"/>
      <point x="393" y="27"/>
      <point x="398" y="37"/>
      <point x="398" y="43" type="curve" smooth="yes"/>
      <point x="398" y="53"/>
      <point x="390" y="62"/>
      <point x="379" y="62" type="curve" smooth="yes"/>
      <point x="376" y="62"/>
      <point x="373" y="60"/>
      <point x="366" y="53" type="curve" smooth="yes"/>
      <point x="359" y="46"/>
      <point x="350" y="44"/>
      <point x="335" y="44" type="curve" smooth="yes"/>
      <point x="318" y="44"/>
      <point x="306" y="59"/>
      <point x="306" y="82" type="curve" smooth="yes"/>
      <point x="311" y="325" type="line" smooth="yes"/>
      <point x="312" y="376"/>
      <point x="277" y="414"/>
      <point x="229" y="414" type="curve" smooth="yes"/>
      <point x="189" y="414"/>
      <point x="125" y="384"/>
      <point x="80" y="343" type="curve" smooth="yes"/>
      <point x="55" y="321"/>
      <point x="40" y="295"/>
      <point x="40" y="274" type="curve" smooth="yes"/>
      <point x="40" y="269"/>
      <point x="44" y="265"/>
      <point x="51" y="265" type="curve" smooth="yes"/>
      <point x="71" y="265"/>
      <point x="117" y="290"/>
      <point x="117" y="300" type="curve" smooth="yes"/>
      <point x="117" y="305"/>
      <point x="116" y="313"/>
      <point x="116" y="311" type="curve" smooth="yes"/>
      <point x="116" y="319"/>
      <point x="118" y="326"/>
      <point x="126" y="329" type="curve" smooth="yes"/>
      <point x="139" y="336"/>
      <point x="161" y="340"/>
      <point x="181" y="340" type="curve" smooth="yes"/>
      <point x="219" y="340"/>
      <point x="241" y="323"/>
      <point x="240" y="301" type="curve" smooth="yes"/>
      <point x="238" y="262" type="line" smooth="yes"/>
      <point x="236" y="232"/>
      <point x="237" y="229"/>
      <point x="210" y="218" type="curve" smooth="yes"/>
      <point x="108" y="177" type="line" smooth="yes"/>
      <point x="57" y="157"/>
      <point x="35" y="126"/>
      <point x="35" y="78" type="curve" smooth="yes"/>
      <point x="35" y="32"/>
      <point x="83" y="-14"/>
    </contour>
    <contour>
      <point x="167" y="66" type="curve" smooth="yes"/>
      <point x="143" y="66"/>
      <point x="119" y="75"/>
      <point x="119" y="96" type="curve" smooth="yes"/>
      <point x="119" y="120"/>
      <point x="137" y="130"/>
      <point x="210" y="152" type="curve" smooth="yes"/>
      <point x="221" y="155"/>
      <point x="226" y="156"/>
      <point x="230" y="156" type="curve" smooth="yes"/>
      <point x="237" y="156"/>
      <point x="238" y="152"/>
      <point x="238" y="144" type="curve" smooth="yes"/>
      <point x="236" y="103" type="line" smooth="yes"/>
      <point x="235" y="92"/>
      <point x="230" y="86"/>
      <point x="221" y="81" type="curve" smooth="yes"/>
      <point x="208" y="72"/>
      <point x="186" y="66"/>
    </contour>
  </outline>
</glyph>
<glyph name="d" format="1">
  <advance width="506"/>
  <unicode hex="0064"/>
  <outline>
    <contour>
      <point x="357" y="-19" type="curve" smooth="yes"/>
      <point x="361" y="-19"/>
      <point x="362" y="-19"/>
      <point x="373" y="-13" type="curve" smooth="yes"/>
      <point x="420" y="7"/>
      <point x="453" y="16"/>
      <point x="481" y="19" type="curve" smooth="yes"/>
      <point x="496" y="21"/>
      <point x="504" y="38"/>
      <point x="504" y="59" type="curve" smooth="yes"/>
      <point x="504" y="73"/>
      <point x="492" y="81"/>
      <point x="478" y="80" type="curve" smooth="yes"/>
      <point x="460" y="79"/>
      <point x="450" y="75"/>
      <point x="443" y="75" type="curve" smooth="yes"/>
      <point x="428" y="75"/>
      <point x="422" y="107"/>
      <point x="422" y="134" type="curve" smooth="yes"/>
      <point x="422" y="562" type="line" smooth="yes"/>
      <point x="422" y="652"/>
      <point x="431" y="686"/>
      <point x="428" y="698" type="curve" smooth="yes"/>
      <point x="427" y="702"/>
      <point x="425" y="704"/>
      <point x="421" y="704" type="curve" smooth="yes"/>
      <point x="418" y="704"/>
      <point x="413" y="703"/>
      <point x="408" y="701" type="curve" smooth="yes"/>
      <point x="389" y="693"/>
      <point x="363" y="687"/>
      <point x="313" y="676" type="curve" smooth="yes"/>
      <point x="298" y="673"/>
      <point x="293" y="664"/>
      <point x="293" y="652" type="curve" smooth="yes"/>
      <point x="293" y="644"/>
      <point x="300" y="631"/>
      <point x="308" y="628" type="curve" smooth="yes"/>
      <point x="340" y="613"/>
      <point x="352" y="605"/>
      <point x="352" y="548" type="curve" smooth="yes"/>
      <point x="352" y="424" type="line" smooth="yes"/>
      <point x="352" y="406"/>
      <point x="348" y="400"/>
      <point x="345" y="400" type="curve" smooth="yes"/>
      <point x="342" y="400"/>
      <point x="338" y="401"/>
      <point x="332" y="403" type="curve" smooth="yes"/>
      <point x="317" y="408"/>
      <point x="287" y="414"/>
      <point x="260" y="414" type="curve" smooth="yes"/>
      <point x="120" y="414"/>
      <point x="35" y="306"/>
      <point x="35" y="190" type="curve" smooth="yes"/>
      <point x="35" y="89"/>
      <point x="106" y="-14"/>
      <point x="220" y="-14" type="curve" smooth="yes"/>
      <point x="286" y="-14"/>
      <point x="331" y="26"/>
      <point x="351" y="57" type="curve"/>
      <point x="351" y="51" type="line" smooth="yes"/>
      <point x="351" y="34"/>
      <point x="346" y="4"/>
      <point x="346" y="-9" type="curve" smooth="yes"/>
      <point x="346" y="-12"/>
      <point x="354" y="-19"/>
    </contour>
    <contour>
      <point x="258" y="69" type="curve" smooth="yes"/>
      <point x="215" y="69"/>
      <point x="111" y="89"/>
      <point x="111" y="213" type="curve" smooth="yes"/>
      <point x="111" y="324"/>
      <point x="186" y="351"/>
      <point x="232" y="351" type="curve" smooth="yes"/>
      <point x="328" y="351"/>
      <point x="352" y="314"/>
      <point x="352" y="259" type="curve" smooth="yes"/>
      <point x="351" y="109" type="line"/>
      <point x="327" y="85"/>
      <point x="292" y="69"/>
    </contour>
  </outline>
</glyph>
<glyph name="g" format="1">
  <advance width="435"/>
  <unicode hex="0067"/>
  <outline>
    <contour>
      <point x="195" y="-290" type="curve" smooth="yes"/>
      <point x="303" y="-290"/>
      <point x="418" y="-180"/>
      <point x="418" y="-77" type="curve" smooth="yes"/>
      <point x="418" y="-16"/>
      <point x="359" y="17"/>
      <point x="236" y="24" type="curve" smooth="yes"/>
      <point x="162" y="29"/>
      <point x="106" y="46"/>
      <point x="117" y="74" type="curve" smooth="yes"/>
      <point x="117" y="88"/>
      <point x="139" y="109"/>
      <point x="168" y="120" type="curve"/>
      <point x="112" y="145" type="line"/>
      <point x="103" y="126"/>
      <point x="99" y="122"/>
      <point x="60" y="84" type="curve" smooth="yes"/>
      <point x="46" y="70"/>
      <point x="40" y="58"/>
      <point x="40" y="44" type="curve" smooth="yes"/>
      <point x="40" y="-7"/>
      <point x="82" y="-28"/>
      <point x="207" y="-37" type="curve" smooth="yes"/>
      <point x="313" y="-43"/>
      <point x="357" y="-62"/>
      <point x="357" y="-100" type="curve" smooth="yes"/>
      <point x="357" y="-141"/>
      <point x="337" y="-178"/>
      <point x="304" y="-200" type="curve" smooth="yes"/>
      <point x="280" y="-216"/>
      <point x="244" y="-224"/>
      <point x="204" y="-224" type="curve" smooth="yes"/>
      <point x="137" y="-224"/>
      <point x="92" y="-195"/>
      <point x="92" y="-141" type="curve" smooth="yes"/>
      <point x="92" y="-94"/>
      <point x="118" y="-65"/>
      <point x="176" y="-29" type="curve"/>
      <point x="125" y="-6" type="line"/>
      <point x="93" y="-37"/>
      <point x="61" y="-66"/>
      <point x="43" y="-85" type="curve" smooth="yes"/>
      <point x="21" y="-105"/>
      <point x="11" y="-130"/>
      <point x="11" y="-170" type="curve" smooth="yes"/>
      <point x="11" y="-244"/>
      <point x="81" y="-290"/>
    </contour>
    <contour>
      <point x="207" y="174" type="curve" smooth="yes"/>
      <point x="155" y="174"/>
      <point x="111" y="217"/>
      <point x="111" y="268" type="curve" smooth="yes"/>
      <point x="111" y="313"/>
      <point x="153" y="353"/>
      <point x="200" y="353" type="curve" smooth="yes"/>
      <point x="249" y="353"/>
      <point x="295" y="314"/>
      <point x="295" y="272" type="curve" smooth="yes"/>
      <point x="295" y="216"/>
      <point x="257" y="174"/>
    </contour>
    <contour>
      <point x="201" y="106" type="curve" smooth="yes"/>
      <point x="287" y="106"/>
      <point x="360" y="182"/>
      <point x="360" y="270" type="curve" smooth="yes"/>
      <point x="360" y="286"/>
      <point x="362" y="302"/>
      <point x="366" y="310" type="curve" smooth="yes"/>
      <point x="368" y="314"/>
      <point x="378" y="317"/>
      <point x="396" y="317" type="curve" smooth="yes"/>
      <point x="423" y="317" type="line" smooth="yes"/>
      <point x="425" y="317"/>
      <point x="428" y="321"/>
      <point x="431" y="326" type="curve" smooth="yes"/>
      <point x="437" y="338"/>
      <point x="441" y="352"/>
      <point x="441" y="360" type="curve" smooth="yes"/>
      <point x="441" y="377"/>
      <point x="435" y="388"/>
      <point x="428" y="388" type="curve" smooth="yes"/>
      <point x="418" y="388"/>
      <point x="389" y="385"/>
      <point x="373" y="385" type="curve" smooth="yes"/>
      <point x="353" y="385"/>
      <point x="338" y="386"/>
      <point x="306" y="395" type="curve" smooth="yes"/>
      <point x="278" y="403"/>
      <point x="252" y="416"/>
      <point x="213" y="416" type="curve" smooth="yes"/>
      <point x="122" y="416"/>
      <point x="39" y="351"/>
      <point x="39" y="258" type="curve" smooth="yes"/>
      <point x="39" y="176"/>
      <point x="119" y="106"/>
    </contour>
  </outline>
</glyph>
<glyph name="h" format="1">
  <advance width="517"/>
  <unicode hex="0068"/>
  <outline>
    <contour>
      <point x="39" y="-3" type="curve" smooth="yes"/>
      <point x="79" y="-3"/>
      <point x="85" y="7"/>
      <point x="120" y="7" type="curve" smooth="yes"/>
      <point x="155" y="7"/>
      <point x="161" y="-3"/>
      <point x="201" y="-3" type="curve" smooth="yes"/>
      <point x="214" y="-3"/>
      <point x="221" y="3"/>
      <point x="221" y="19" type="curve" smooth="yes"/>
      <point x="221" y="35"/>
      <point x="214" y="43"/>
      <point x="198" y="51" type="curve" smooth="yes"/>
      <point x="179" y="60"/>
      <point x="155" y="67"/>
      <point x="155" y="106" type="curve" smooth="yes"/>
      <point x="155" y="252" type="line" smooth="yes"/>
      <point x="155" y="280"/>
      <point x="161" y="290"/>
      <point x="182" y="302" type="curve" smooth="yes"/>
      <point x="201" y="313"/>
      <point x="240" y="320"/>
      <point x="265" y="320" type="curve" smooth="yes"/>
      <point x="318" y="320"/>
      <point x="358" y="291"/>
      <point x="358" y="230" type="curve" smooth="yes"/>
      <point x="358" y="106" type="line" smooth="yes"/>
      <point x="358" y="67"/>
      <point x="335" y="61"/>
      <point x="315" y="51" type="curve" smooth="yes"/>
      <point x="303" y="45"/>
      <point x="292" y="35"/>
      <point x="292" y="15" type="curve" smooth="yes"/>
      <point x="292" y="-1"/>
      <point x="305" y="-3"/>
      <point x="312" y="-3" type="curve" smooth="yes"/>
      <point x="352" y="-3"/>
      <point x="359" y="7"/>
      <point x="394" y="7" type="curve" smooth="yes"/>
      <point x="429" y="7"/>
      <point x="434" y="-3"/>
      <point x="474" y="-3" type="curve" smooth="yes"/>
      <point x="482" y="-3"/>
      <point x="494" y="-1"/>
      <point x="494" y="15" type="curve" smooth="yes"/>
      <point x="494" y="35"/>
      <point x="482" y="43"/>
      <point x="471" y="51" type="curve" smooth="yes"/>
      <point x="453" y="64"/>
      <point x="428" y="67"/>
      <point x="428" y="106" type="curve" smooth="yes"/>
      <point x="428" y="278" type="line" smooth="yes"/>
      <point x="428" y="356"/>
      <point x="379" y="414"/>
      <point x="314" y="414" type="curve" smooth="yes"/>
      <point x="240" y="414"/>
      <point x="172" y="358"/>
      <point x="148" y="341" type="curve"/>
      <point x="168" y="341" type="line"/>
      <point x="158" y="357"/>
      <point x="155" y="360"/>
      <point x="155" y="388" type="curve" smooth="yes"/>
      <point x="155" y="562" type="line" smooth="yes"/>
      <point x="155" y="669"/>
      <point x="164" y="686"/>
      <point x="164" y="698" type="curve" smooth="yes"/>
      <point x="164" y="702"/>
      <point x="161" y="705"/>
      <point x="157" y="705" type="curve" smooth="yes"/>
      <point x="155" y="705"/>
      <point x="153" y="704"/>
      <point x="151" y="703" type="curve"/>
      <point x="118" y="693"/>
      <point x="68" y="682"/>
      <point x="52" y="677" type="curve" smooth="yes"/>
      <point x="34" y="672"/>
      <point x="32" y="664"/>
      <point x="32" y="653" type="curve" smooth="yes"/>
      <point x="32" y="638"/>
      <point x="35" y="628"/>
      <point x="49" y="625" type="curve" smooth="yes"/>
      <point x="74" y="620"/>
      <point x="85" y="596"/>
      <point x="85" y="566" type="curve" smooth="yes"/>
      <point x="85" y="106" type="line" smooth="yes"/>
      <point x="85" y="67"/>
      <point x="62" y="58"/>
      <point x="42" y="51" type="curve" smooth="yes"/>
      <point x="26" y="45"/>
      <point x="19" y="39"/>
      <point x="19" y="19" type="curve" smooth="yes"/>
      <point x="19" y="3"/>
      <point x="27" y="-3"/>
    </contour>
  </outline>
</glyph>
<glyph name="i" format="1">
  <advance width="245"/>
  <unicode hex="0069"/>
  <outline>
    <contour>
      <point x="44" y="-3" type="curve" smooth="yes"/>
      <point x="83" y="-3"/>
      <point x="90" y="2"/>
      <point x="125" y="2" type="curve" smooth="yes"/>
      <point x="160" y="7"/>
      <point x="168" y="-3"/>
      <point x="206" y="-3" type="curve" smooth="yes"/>
      <point x="219" y="-3"/>
      <point x="226" y="3"/>
      <point x="226" y="19" type="curve" smooth="yes"/>
      <point x="226" y="38"/>
      <point x="214" y="44"/>
      <point x="203" y="50" type="curve" smooth="yes"/>
      <point x="176" y="61"/>
      <point x="160" y="73"/>
      <point x="160" y="107" type="curve" smooth="yes"/>
      <point x="160" y="294" type="line" smooth="yes"/>
      <point x="160" y="339"/>
      <point x="169" y="402"/>
      <point x="169" y="418" type="curve" smooth="yes"/>
      <point x="169" y="426"/>
      <point x="164" y="434"/>
      <point x="156" y="434" type="curve" smooth="yes"/>
      <point x="148" y="434"/>
      <point x="138" y="428"/>
      <point x="134" y="424" type="curve" smooth="yes"/>
      <point x="117" y="410"/>
      <point x="102" y="396"/>
      <point x="49" y="384" type="curve" smooth="yes"/>
      <point x="39" y="382"/>
      <point x="35" y="373"/>
      <point x="35" y="365" type="curve" smooth="yes"/>
      <point x="35" y="354"/>
      <point x="40" y="345"/>
      <point x="50" y="342" type="curve" smooth="yes"/>
      <point x="84" y="336"/>
      <point x="90" y="305"/>
      <point x="90" y="262" type="curve" smooth="yes"/>
      <point x="90" y="107" type="line" smooth="yes"/>
      <point x="90" y="71"/>
      <point x="75" y="61"/>
      <point x="47" y="50" type="curve" smooth="yes"/>
      <point x="36" y="44"/>
      <point x="24" y="38"/>
      <point x="24" y="19" type="curve" smooth="yes"/>
      <point x="24" y="3"/>
      <point x="32" y="-3"/>
    </contour>
    <contour>
      <point x="124" y="516" type="curve" smooth="yes"/>
      <point x="153" y="516"/>
      <point x="175" y="538"/>
      <point x="175" y="566" type="curve" smooth="yes"/>
      <point x="175" y="595"/>
      <point x="153" y="617"/>
      <point x="124" y="617" type="curve" smooth="yes"/>
      <point x="96" y="617"/>
      <point x="74" y="595"/>
      <point x="74" y="566" type="curve" smooth="yes"/>
      <point x="74" y="538"/>
      <point x="96" y="516"/>
    </contour>
  </outline>
</glyph>
<glyph name="l" format="1">
  <advance width="240"/>
  <unicode hex="006C"/>
  <outline>
    <contour>
      <point x="78" y="-3"/>
      <point x="85" y="2"/>
      <point x="120" y="2" type="curve" smooth="yes"/>
      <point x="155" y="2"/>
      <point x="162" y="-3"/>
      <point x="201" y="-3" type="curve" smooth="yes"/>
      <point x="208" y="-3"/>
      <point x="221" y="-1"/>
      <point x="221" y="15" type="curve" smooth="yes"/>
      <point x="221" y="34"/>
      <point x="209" y="42"/>
      <point x="198" y="48" type="curve" smooth="yes"/>
      <point x="178" y="57"/>
      <point x="155" y="65"/>
      <point x="155" y="107" type="curve" smooth="yes"/>
      <point x="155" y="562" type="line" smooth="yes"/>
      <point x="155" y="652"/>
      <point x="162" y="686"/>
      <point x="162" y="698" type="curve" smooth="yes"/>
      <point x="162" y="701"/>
      <point x="157" y="705"/>
      <point x="150" y="705" type="curve" smooth="yes"/>
      <point x="141" y="705"/>
      <point x="134" y="701"/>
      <point x="128" y="696" type="curve" smooth="yes"/>
      <point x="112" y="683"/>
      <point x="94" y="678"/>
      <point x="43" y="670" type="curve" smooth="yes"/>
      <point x="33" y="668"/>
      <point x="31" y="657"/>
      <point x="31" y="649" type="curve" smooth="yes"/>
      <point x="31" y="641"/>
      <point x="35" y="632"/>
      <point x="51" y="627" type="curve" smooth="yes"/>
      <point x="72" y="620"/>
      <point x="85" y="599"/>
      <point x="85" y="560" type="curve" smooth="yes"/>
      <point x="85" y="107" type="line" smooth="yes"/>
      <point x="85" y="65"/>
      <point x="62" y="57"/>
      <point x="42" y="48" type="curve" smooth="yes"/>
      <point x="31" y="42"/>
      <point x="19" y="34"/>
      <point x="19" y="15" type="curve" smooth="yes"/>
      <point x="19" y="-1"/>
      <point x="32" y="-3"/>
      <point x="39" y="-3" type="curve" smooth="yes"/>
    </contour>
  </outline>
</glyph>
<glyph name="m" format="1">
  <advance width="778"/>
  <unicode hex="006D"/>
  <outline>
    <contour>
      <point x="48" y="-3" type="curve" smooth="yes"/>
      <point x="88" y="-3"/>
      <point x="90" y="2"/>
      <point x="125" y="2" type="curve" smooth="yes"/>
      <point x="160" y="2"/>
      <point x="163" y="-3"/>
      <point x="203" y="-3" type="curve" smooth="yes"/>
      <point x="215" y="-3"/>
      <point x="226" y="3"/>
      <point x="226" y="19" type="curve" smooth="yes"/>
      <point x="226" y="38"/>
      <point x="213" y="46"/>
      <point x="200" y="50" type="curve" smooth="yes"/>
      <point x="180" y="57"/>
      <point x="160" y="66"/>
      <point x="160" y="107" type="curve" smooth="yes"/>
      <point x="160" y="258" type="line" smooth="yes"/>
      <point x="160" y="280"/>
      <point x="168" y="295"/>
      <point x="187" y="304" type="curve" smooth="yes"/>
      <point x="212" y="317"/>
      <point x="240" y="321"/>
      <point x="274" y="321" type="curve" smooth="yes"/>
      <point x="317" y="321"/>
      <point x="354" y="292"/>
      <point x="354" y="261" type="curve" smooth="yes"/>
      <point x="354" y="107" type="line" smooth="yes"/>
      <point x="354" y="64"/>
      <point x="330" y="58"/>
      <point x="310" y="50" type="curve" smooth="yes"/>
      <point x="297" y="45"/>
      <point x="287" y="38"/>
      <point x="287" y="19" type="curve" smooth="yes"/>
      <point x="287" y="3"/>
      <point x="296" y="-3"/>
      <point x="307" y="-3" type="curve" smooth="yes"/>
      <point x="347" y="-3"/>
      <point x="355" y="2"/>
      <point x="390" y="2" type="curve" smooth="yes"/>
      <point x="425" y="2"/>
      <point x="432" y="-3"/>
      <point x="472" y="-3" type="curve" smooth="yes"/>
      <point x="485" y="-3"/>
      <point x="492" y="3"/>
      <point x="492" y="19" type="curve" smooth="yes"/>
      <point x="492" y="36"/>
      <point x="483" y="45"/>
      <point x="469" y="50" type="curve" smooth="yes"/>
      <point x="449" y="57"/>
      <point x="424" y="64"/>
      <point x="424" y="107" type="curve" smooth="yes"/>
      <point x="424" y="258" type="line" smooth="yes"/>
      <point x="424" y="280"/>
      <point x="434" y="295"/>
      <point x="452" y="304" type="curve" smooth="yes"/>
      <point x="477" y="317"/>
      <point x="505" y="321"/>
      <point x="539" y="321" type="curve" smooth="yes"/>
      <point x="582" y="321"/>
      <point x="619" y="292"/>
      <point x="619" y="261" type="curve" smooth="yes"/>
      <point x="619" y="107" type="line" smooth="yes"/>
      <point x="619" y="71"/>
      <point x="597" y="59"/>
      <point x="576" y="50" type="curve" smooth="yes"/>
      <point x="563" y="44"/>
      <point x="553" y="38"/>
      <point x="553" y="19" type="curve" smooth="yes"/>
      <point x="553" y="3"/>
      <point x="561" y="-3"/>
      <point x="573" y="-3" type="curve" smooth="yes"/>
      <point x="613" y="-3"/>
      <point x="621" y="2"/>
      <point x="656" y="2" type="curve" smooth="yes"/>
      <point x="691" y="2"/>
      <point x="695" y="-3"/>
      <point x="735" y="-3" type="curve" smooth="yes"/>
      <point x="750" y="-3"/>
      <point x="755" y="3"/>
      <point x="755" y="19" type="curve" smooth="yes"/>
      <point x="755" y="36"/>
      <point x="745" y="42"/>
      <point x="732" y="50" type="curve" smooth="yes"/>
      <point x="712" y="61"/>
      <point x="689" y="71"/>
      <point x="689" y="107" type="curve" smooth="yes"/>
      <point x="689" y="275" type="line" smooth="yes"/>
      <point x="689" y="345"/>
      <point x="654" y="414"/>
      <point x="589" y="414" type="curve" smooth="yes"/>
      <point x="524" y="414"/>
      <point x="469" y="383"/>
      <point x="426" y="345" type="curve"/>
      <point x="423" y="345" type="line"/>
      <point x="402" y="396"/>
      <point x="371" y="414"/>
      <point x="323" y="414" type="curve" smooth="yes"/>
      <point x="246" y="414"/>
      <point x="197" y="376"/>
      <point x="167" y="347" type="curve"/>
      <point x="165" y="347" type="line"/>
      <point x="164" y="348"/>
      <point x="163" y="353"/>
      <point x="163" y="359" type="curve" smooth="yes"/>
      <point x="163" y="378"/>
      <point x="168" y="405"/>
      <point x="168" y="414" type="curve" smooth="yes"/>
      <point x="168" y="422"/>
      <point x="161" y="430"/>
      <point x="153" y="430" type="curve" smooth="yes"/>
      <point x="144" y="430"/>
      <point x="136" y="425"/>
      <point x="126" y="418" type="curve" smooth="yes"/>
      <point x="109" y="406"/>
      <point x="87" y="394"/>
      <point x="61" y="385" type="curve" smooth="yes"/>
      <point x="49" y="381"/>
      <point x="43" y="370"/>
      <point x="43" y="362" type="curve" smooth="yes"/>
      <point x="43" y="353"/>
      <point x="46" y="344"/>
      <point x="57" y="341" type="curve" smooth="yes"/>
      <point x="86" y="333"/>
      <point x="90" y="304"/>
      <point x="90" y="262" type="curve" smooth="yes"/>
      <point x="90" y="107" type="line" smooth="yes"/>
      <point x="90" y="66"/>
      <point x="70" y="57"/>
      <point x="51" y="50" type="curve" smooth="yes"/>
      <point x="36" y="45"/>
      <point x="24" y="36"/>
      <point x="24" y="19" type="curve" smooth="yes"/>
      <point x="24" y="0"/>
      <point x="37" y="-3"/>
    </contour>
  </outline>
</glyph>
<glyph name="n" format="1">
  <advance width="528"/>
  <unicode hex="006E"/>
  <outline>
    <contour>
      <point x="44" y="-3" type="curve" smooth="yes"/>
      <point x="84" y="-3"/>
      <point x="90" y="7"/>
      <point x="125" y="7" type="curve" smooth="yes"/>
      <point x="160" y="7"/>
      <point x="166" y="-3"/>
      <point x="206" y="-3" type="curve" smooth="yes"/>
      <point x="219" y="-3"/>
      <point x="226" y="3"/>
      <point x="226" y="19" type="curve" smooth="yes"/>
      <point x="226" y="35"/>
      <point x="219" y="43"/>
      <point x="203" y="51" type="curve" smooth="yes"/>
      <point x="183" y="58"/>
      <point x="160" y="67"/>
      <point x="160" y="106" type="curve" smooth="yes"/>
      <point x="160" y="257" type="line" smooth="yes"/>
      <point x="160" y="265"/>
      <point x="163" y="275"/>
      <point x="168" y="280" type="curve" smooth="yes"/>
      <point x="194" y="306"/>
      <point x="231" y="320"/>
      <point x="279" y="320" type="curve" smooth="yes"/>
      <point x="333" y="319"/>
      <point x="369" y="284"/>
      <point x="369" y="226" type="curve" smooth="yes"/>
      <point x="369" y="106" type="line" smooth="yes"/>
      <point x="369" y="67"/>
      <point x="346" y="60"/>
      <point x="326" y="51" type="curve" smooth="yes"/>
      <point x="315" y="43"/>
      <point x="303" y="35"/>
      <point x="303" y="15" type="curve" smooth="yes"/>
      <point x="303" y="-1"/>
      <point x="316" y="-3"/>
      <point x="323" y="-3" type="curve" smooth="yes"/>
      <point x="363" y="-3"/>
      <point x="370" y="7"/>
      <point x="405" y="7" type="curve" smooth="yes"/>
      <point x="440" y="7"/>
      <point x="445" y="-3"/>
      <point x="485" y="-3" type="curve" smooth="yes"/>
      <point x="493" y="-3"/>
      <point x="505" y="-1"/>
      <point x="505" y="15" type="curve" smooth="yes"/>
      <point x="505" y="35"/>
      <point x="493" y="43"/>
      <point x="482" y="51" type="curve" smooth="yes"/>
      <point x="462" y="60"/>
      <point x="439" y="67"/>
      <point x="439" y="106" type="curve" smooth="yes"/>
      <point x="439" y="229" type="line" smooth="yes"/>
      <point x="439" y="333"/>
      <point x="391" y="414"/>
      <point x="326" y="414" type="curve" smooth="yes"/>
      <point x="263" y="414"/>
      <point x="212" y="391"/>
      <point x="165" y="343" type="curve"/>
      <point x="164" y="342"/>
      <point x="163" y="358"/>
      <point x="163" y="371" type="curve" smooth="yes"/>
      <point x="163" y="389"/>
      <point x="168" y="409"/>
      <point x="168" y="421" type="curve" smooth="yes"/>
      <point x="168" y="426"/>
      <point x="166" y="430"/>
      <point x="163" y="430" type="curve" smooth="yes"/>
      <point x="159" y="430"/>
      <point x="157" y="428"/>
      <point x="153" y="426" type="curve" smooth="yes"/>
      <point x="128" y="410"/>
      <point x="105" y="397"/>
      <point x="64" y="387" type="curve" smooth="yes"/>
      <point x="50" y="384"/>
      <point x="43" y="377"/>
      <point x="43" y="363" type="curve" smooth="yes"/>
      <point x="43" y="347"/>
      <point x="52" y="341"/>
      <point x="66" y="337" type="curve" smooth="yes"/>
      <point x="88" y="330"/>
      <point x="90" y="307"/>
      <point x="90" y="277" type="curve" smooth="yes"/>
      <point x="90" y="106" type="line" smooth="yes"/>
      <point x="90" y="67"/>
      <point x="67" y="58"/>
      <point x="47" y="51" type="curve" smooth="yes"/>
      <point x="32" y="43"/>
      <point x="24" y="39"/>
      <point x="24" y="19" type="curve" smooth="yes"/>
      <point x="24" y="3"/>
      <point x="32" y="-3"/>
    </contour>
  </outline>
</glyph>
<glyph name="o" format="1">
  <advance width="495"/>
  <unicode hex="006F"/>
  <outline>
    <contour>
      <point x="234" y="-14" type="curve" smooth="yes"/>
      <point x="367" y="-14"/>
      <point x="460" y="79"/>
      <point x="460" y="213" type="curve" smooth="yes"/>
      <point x="460" y="324"/>
      <point x="367" y="414"/>
      <point x="254" y="414" type="curve" smooth="yes"/>
      <point x="139" y="414"/>
      <point x="35" y="306"/>
      <point x="35" y="187" type="curve" smooth="yes"/>
      <point x="35" y="72"/>
      <point x="120" y="-14"/>
    </contour>
    <contour>
      <point x="255" y="47" type="curve" smooth="yes"/>
      <point x="180" y="47"/>
      <point x="117" y="120"/>
      <point x="117" y="208" type="curve" smooth="yes"/>
      <point x="117" y="306"/>
      <point x="155" y="352"/>
      <point x="237" y="352" type="curve" smooth="yes"/>
      <point x="314" y="352"/>
      <point x="378" y="279"/>
      <point x="378" y="191" type="curve" smooth="yes"/>
      <point x="378" y="90"/>
      <point x="341" y="47"/>
    </contour>
  </outline>
</glyph>
<glyph name="q" format="1">
  <advance width="522"/>
  <unicode hex="0071"/>
  <outline>
    <contour>
      <point x="331" y="-285" type="curve" smooth="yes"/>
      <point x="371" y="-285"/>
      <point x="377" y="-280"/>
      <point x="412" y="-280" type="curve" smooth="yes"/>
      <point x="448" y="-280"/>
      <point x="462" y="-285"/>
      <point x="502" y="-285" type="curve" smooth="yes"/>
      <point x="510" y="-285"/>
      <point x="522" y="-283"/>
      <point x="522" y="-264" type="curve" smooth="yes"/>
      <point x="522" y="-250"/>
      <point x="512" y="-240"/>
      <point x="499" y="-233" type="curve" smooth="yes"/>
      <point x="477" y="-221"/>
      <point x="447" y="-221"/>
      <point x="447" y="-175" type="curve" smooth="yes"/>
      <point x="447" y="295" type="line" smooth="yes"/>
      <point x="447" y="352"/>
      <point x="459" y="398"/>
      <point x="459" y="411" type="curve" smooth="yes"/>
      <point x="459" y="416"/>
      <point x="439" y="421"/>
      <point x="427" y="421" type="curve" smooth="yes"/>
      <point x="421" y="421"/>
      <point x="416" y="420"/>
      <point x="412" y="412" type="curve" smooth="yes"/>
      <point x="408" y="402"/>
      <point x="402" y="385"/>
      <point x="390" y="385" type="curve" smooth="yes"/>
      <point x="385" y="385"/>
      <point x="340" y="414"/>
      <point x="282" y="414" type="curve" smooth="yes"/>
      <point x="135" y="414"/>
      <point x="35" y="319"/>
      <point x="35" y="178" type="curve" smooth="yes"/>
      <point x="35" y="54"/>
      <point x="131" y="-14"/>
      <point x="235" y="-14" type="curve" smooth="yes"/>
      <point x="288" y="-14"/>
      <point x="345" y="26"/>
      <point x="362" y="41" type="curve" smooth="yes"/>
      <point x="365" y="44"/>
      <point x="368" y="43"/>
      <point x="371" y="43" type="curve" smooth="yes"/>
      <point x="375" y="43"/>
      <point x="377" y="36"/>
      <point x="377" y="13" type="curve" smooth="yes"/>
      <point x="377" y="-174" type="line" smooth="yes"/>
      <point x="377" y="-205"/>
      <point x="362" y="-216"/>
      <point x="336" y="-232" type="curve" smooth="yes"/>
      <point x="324" y="-239"/>
      <point x="311" y="-246"/>
      <point x="311" y="-267" type="curve" smooth="yes"/>
      <point x="311" y="-283"/>
      <point x="324" y="-285"/>
    </contour>
    <contour>
      <point x="272" y="68" type="curve" smooth="yes"/>
      <point x="212" y="68"/>
      <point x="117" y="93"/>
      <point x="117" y="190" type="curve" smooth="yes"/>
      <point x="117" y="275"/>
      <point x="185" y="321"/>
      <point x="257" y="321" type="curve" smooth="yes"/>
      <point x="344" y="321"/>
      <point x="375" y="277"/>
      <point x="377" y="242" type="curve" smooth="yes"/>
      <point x="378" y="223"/>
      <point x="378" y="125"/>
      <point x="378" y="99" type="curve"/>
      <point x="361" y="85"/>
      <point x="316" y="68"/>
    </contour>
  </outline>
</glyph>
<glyph name="r" format="1">
  <advance width="334"/>
  <unicode hex="0072"/>
  <outline>
    <contour>
      <point x="49" y="-3" type="curve" smooth="yes"/>
      <point x="89" y="-3"/>
      <point x="95" y="2"/>
      <point x="130" y="2" type="curve" smooth="yes"/>
      <point x="165" y="2"/>
      <point x="177" y="-3"/>
      <point x="217" y="-3" type="curve" smooth="yes"/>
      <point x="231" y="-3"/>
      <point x="237" y="2"/>
      <point x="237" y="16" type="curve" smooth="yes"/>
      <point x="237" y="32"/>
      <point x="228" y="38"/>
      <point x="214" y="45" type="curve" smooth="yes"/>
      <point x="169" y="68"/>
      <point x="161" y="71"/>
      <point x="161" y="111" type="curve" smooth="yes"/>
      <point x="161" y="204" type="line" smooth="yes"/>
      <point x="161" y="292"/>
      <point x="192" y="321"/>
      <point x="230" y="321" type="curve" smooth="yes"/>
      <point x="240" y="321"/>
      <point x="251" y="314"/>
      <point x="262" y="309" type="curve" smooth="yes"/>
      <point x="272" y="302"/>
      <point x="282" y="296"/>
      <point x="290" y="296" type="curve" smooth="yes"/>
      <point x="310" y="296"/>
      <point x="329" y="341"/>
      <point x="329" y="369" type="curve" smooth="yes"/>
      <point x="329" y="394"/>
      <point x="309" y="414"/>
      <point x="281" y="414" type="curve" smooth="yes"/>
      <point x="242" y="414"/>
      <point x="198" y="385"/>
      <point x="166" y="346" type="curve"/>
      <point x="165" y="346"/>
      <point x="164" y="347"/>
      <point x="164" y="348" type="curve"/>
      <point x="166" y="380"/>
      <point x="167" y="416"/>
      <point x="167" y="423" type="curve"/>
      <point x="167" y="427"/>
      <point x="165" y="430"/>
      <point x="162" y="430" type="curve" smooth="yes"/>
      <point x="159" y="430"/>
      <point x="155" y="428"/>
      <point x="147" y="423" type="curve" smooth="yes"/>
      <point x="126" y="410"/>
      <point x="97" y="396"/>
      <point x="55" y="385" type="curve" smooth="yes"/>
      <point x="45" y="382"/>
      <point x="39" y="370"/>
      <point x="39" y="362" type="curve" smooth="yes"/>
      <point x="39" y="355"/>
      <point x="44" y="343"/>
      <point x="54" y="340" type="curve" smooth="yes"/>
      <point x="91" y="331"/>
      <point x="90" y="307"/>
      <point x="90" y="261" type="curve" smooth="yes"/>
      <point x="90" y="106" type="line" smooth="yes"/>
      <point x="90" y="79"/>
      <point x="77" y="61"/>
      <point x="52" y="53" type="curve" smooth="yes"/>
      <point x="37" y="44"/>
      <point x="29" y="40"/>
      <point x="29" y="20" type="curve" smooth="yes"/>
      <point x="29" y="3"/>
      <point x="35" y="-3"/>
    </contour>
  </outline>
</glyph>
<glyph name="s" format="1">
  <advance width="323"/>
  <unicode hex="0073"/>
  <outline>
    <contour>
      <point x="231" y="-14"/>
      <point x="291" y="36"/>
      <point x="291" y="108" type="curve" smooth="yes"/>
      <point x="291" y="170"/>
      <point x="252" y="202"/>
      <point x="176" y="245" type="curve" smooth="yes"/>
      <point x="123" y="275"/>
      <point x="109" y="289"/>
      <point x="109" y="316" type="curve" smooth="yes"/>
      <point x="109" y="348"/>
      <point x="138" y="365"/>
      <point x="171" y="365" type="curve" smooth="yes"/>
      <point x="209" y="365"/>
      <point x="227" y="344"/>
      <point x="243" y="307" type="curve" smooth="yes"/>
      <point x="246" y="301"/>
      <point x="253" y="294"/>
      <point x="266" y="294" type="curve" smooth="yes"/>
      <point x="275" y="294"/>
      <point x="281" y="301"/>
      <point x="281" y="305" type="curve" smooth="yes"/>
      <point x="281" y="334"/>
      <point x="272" y="380"/>
      <point x="262" y="395" type="curve"/>
      <point x="249" y="404"/>
      <point x="222" y="414"/>
      <point x="182" y="414" type="curve" smooth="yes"/>
      <point x="92" y="414"/>
      <point x="47" y="363"/>
      <point x="47" y="299" type="curve" smooth="yes"/>
      <point x="47" y="249"/>
      <point x="72" y="215"/>
      <point x="142" y="175" type="curve" smooth="yes"/>
      <point x="202" y="141"/>
      <point x="220" y="117"/>
      <point x="220" y="86" type="curve" smooth="yes"/>
      <point x="220" y="53"/>
      <point x="192" y="36"/>
      <point x="153" y="36" type="curve" smooth="yes"/>
      <point x="114" y="36"/>
      <point x="84" y="50"/>
      <point x="72" y="105" type="curve" smooth="yes"/>
      <point x="69" y="121"/>
      <point x="59" y="123"/>
      <point x="51" y="123" type="curve" smooth="yes"/>
      <point x="39" y="123"/>
      <point x="29" y="120"/>
      <point x="29" y="108" type="curve" smooth="yes"/>
      <point x="30" y="79"/>
      <point x="33" y="36"/>
      <point x="40" y="22" type="curve"/>
      <point x="65" y="-1"/>
      <point x="103" y="-14"/>
      <point x="144" y="-14" type="curve" smooth="yes"/>
    </contour>
  </outline>
</glyph>
<glyph name="t" format="1">
  <advance width="314"/>
  <unicode hex="0074"/>
  <outline>
    <contour>
      <point x="189" y="-14" type="curve" smooth="yes"/>
      <point x="250" y="-14"/>
      <point x="306" y="36"/>
      <point x="306" y="47" type="curve" smooth="yes"/>
      <point x="306" y="63"/>
      <point x="295" y="80"/>
      <point x="286" y="80" type="curve" smooth="yes"/>
      <point x="281" y="80"/>
      <point x="278" y="77"/>
      <point x="273" y="74" type="curve" smooth="yes"/>
      <point x="261" y="69"/>
      <point x="245" y="62"/>
      <point x="221" y="62" type="curve" smooth="yes"/>
      <point x="178" y="62"/>
      <point x="155" y="90"/>
      <point x="155" y="137" type="curve" smooth="yes"/>
      <point x="155" y="302" type="line" smooth="yes"/>
      <point x="155" y="327"/>
      <point x="161" y="330"/>
      <point x="195" y="330" type="curve" smooth="yes"/>
      <point x="294" y="330" type="line" smooth="yes"/>
      <point x="299" y="330"/>
      <point x="304" y="343"/>
      <point x="304" y="367" type="curve" smooth="yes"/>
      <point x="304" y="381"/>
      <point x="299" y="400"/>
      <point x="294" y="400" type="curve" smooth="yes"/>
      <point x="180" y="400" type="line" smooth="yes"/>
      <point x="163" y="400"/>
      <point x="154" y="404"/>
      <point x="156" y="419" type="curve" smooth="yes"/>
      <point x="159" y="447" type="line" smooth="yes"/>
      <point x="161" y="465"/>
      <point x="150" y="475"/>
      <point x="138" y="475" type="curve" smooth="yes"/>
      <point x="124" y="475"/>
      <point x="116" y="469"/>
      <point x="104" y="451" type="curve" smooth="yes"/>
      <point x="91" y="430"/>
      <point x="77" y="406"/>
      <point x="63" y="390" type="curve" smooth="yes"/>
      <point x="45" y="369"/>
      <point x="35" y="357"/>
      <point x="35" y="354" type="curve" smooth="yes"/>
      <point x="35" y="342"/>
      <point x="40" y="330"/>
      <point x="47" y="330" type="curve" smooth="yes"/>
      <point x="63" y="330" type="line" smooth="yes"/>
      <point x="79" y="330"/>
      <point x="85" y="320"/>
      <point x="85" y="304" type="curve" smooth="yes"/>
      <point x="85" y="105" type="line" smooth="yes"/>
      <point x="85" y="26"/>
      <point x="124" y="-14"/>
    </contour>
  </outline>
</glyph>
<glyph name="u" format="1">
  <advance width="527"/>
  <unicode hex="0075"/>
  <outline>
    <contour>
      <point x="372" y="-19"/>
      <point x="382" y="-16"/>
      <point x="386" y="-15" type="curve"/>
      <point x="415" y="-6"/>
      <point x="451" y="10"/>
      <point x="498" y="10" type="curve" smooth="yes"/>
      <point x="513" y="10"/>
      <point x="517" y="21"/>
      <point x="517" y="35" type="curve" smooth="yes"/>
      <point x="517" y="52"/>
      <point x="507" y="60"/>
      <point x="496" y="60" type="curve" smooth="yes"/>
      <point x="486" y="60"/>
      <point x="466" y="58"/>
      <point x="456" y="58" type="curve" smooth="yes"/>
      <point x="446" y="58"/>
      <point x="438" y="68"/>
      <point x="438" y="117" type="curve" smooth="yes"/>
      <point x="438" y="326" type="line" smooth="yes"/>
      <point x="438" y="342"/>
      <point x="443" y="388"/>
      <point x="445" y="395" type="curve" smooth="yes"/>
      <point x="446" y="399"/>
      <point x="447" y="402"/>
      <point x="447" y="404" type="curve" smooth="yes"/>
      <point x="447" y="411"/>
      <point x="441" y="415"/>
      <point x="434" y="415" type="curve" smooth="yes"/>
      <point x="431" y="415"/>
      <point x="427" y="414"/>
      <point x="424" y="414" type="curve"/>
      <point x="388" y="407"/>
      <point x="362" y="403"/>
      <point x="301" y="403" type="curve" smooth="yes"/>
      <point x="287" y="403"/>
      <point x="280" y="392"/>
      <point x="280" y="377" type="curve" smooth="yes"/>
      <point x="280" y="360"/>
      <point x="289" y="356"/>
      <point x="307" y="356" type="curve" smooth="yes"/>
      <point x="354" y="356"/>
      <point x="368" y="338"/>
      <point x="368" y="295" type="curve" smooth="yes"/>
      <point x="368" y="173" type="line" smooth="yes"/>
      <point x="368" y="131"/>
      <point x="351" y="109"/>
      <point x="322" y="95" type="curve" smooth="yes"/>
      <point x="297" y="84"/>
      <point x="273" y="81"/>
      <point x="239" y="81" type="curve" smooth="yes"/>
      <point x="185" y="81"/>
      <point x="155" y="120"/>
      <point x="155" y="169" type="curve" smooth="yes"/>
      <point x="155" y="323" type="line" smooth="yes"/>
      <point x="155" y="353"/>
      <point x="157" y="369"/>
      <point x="161" y="400" type="curve" smooth="yes"/>
      <point x="162" y="411"/>
      <point x="157" y="414"/>
      <point x="151" y="414" type="curve" smooth="yes"/>
      <point x="148" y="414"/>
      <point x="147" y="414"/>
      <point x="143" y="413" type="curve" smooth="yes"/>
      <point x="106" y="404"/>
      <point x="89" y="400"/>
      <point x="44" y="397" type="curve" smooth="yes"/>
      <point x="36" y="396"/>
      <point x="29" y="387"/>
      <point x="29" y="371" type="curve" smooth="yes"/>
      <point x="29" y="356"/>
      <point x="35" y="352"/>
      <point x="50" y="344" type="curve" smooth="yes"/>
      <point x="71" y="332"/>
      <point x="85" y="319"/>
      <point x="85" y="270" type="curve" smooth="yes"/>
      <point x="85" y="131" type="line" smooth="yes"/>
      <point x="85" y="36"/>
      <point x="134" y="-14"/>
      <point x="199" y="-14" type="curve" smooth="yes"/>
      <point x="261" y="-14"/>
      <point x="312" y="6"/>
      <point x="364" y="57" type="curve"/>
      <point x="364" y="55"/>
      <point x="364" y="53"/>
      <point x="364" y="51" type="curve" smooth="yes"/>
      <point x="364" y="34"/>
      <point x="359" y="2"/>
      <point x="359" y="-11" type="curve" smooth="yes"/>
      <point x="359" y="-16"/>
      <point x="361" y="-19"/>
      <point x="366" y="-19" type="curve" smooth="yes"/>
    </contour>
  </outline>
</glyph>
<glyph name="w" format="1">
  <advance width="685"/>
  <unicode hex="0077"/>
  <outline>
    <contour>
      <point x="229" y="-23" type="curve" smooth="yes"/>
      <point x="233" y="-23"/>
      <point x="237" y="-20"/>
      <point x="240" y="-16" type="curve"/>
      <point x="345" y="235" type="line" smooth="yes"/>
      <point x="348" y="242"/>
      <point x="350" y="245"/>
      <point x="352" y="245" type="curve" smooth="yes"/>
      <point x="354" y="245"/>
      <point x="356" y="241"/>
      <point x="358" y="236" type="curve" smooth="yes"/>
      <point x="460" y="-16" type="line"/>
      <point x="462" y="-20"/>
      <point x="465" y="-23"/>
      <point x="468" y="-23" type="curve" smooth="yes"/>
      <point x="472" y="-23"/>
      <point x="475" y="-20"/>
      <point x="477" y="-16" type="curve"/>
      <point x="606" y="295" type="line" smooth="yes"/>
      <point x="618" y="326"/>
      <point x="648" y="343"/>
      <point x="666" y="352" type="curve" smooth="yes"/>
      <point x="684" y="361"/>
      <point x="689" y="369"/>
      <point x="689" y="387" type="curve" smooth="yes"/>
      <point x="689" y="403"/>
      <point x="679" y="405"/>
      <point x="669" y="405" type="curve" smooth="yes"/>
      <point x="650" y="405"/>
      <point x="645" y="400"/>
      <point x="610" y="400" type="curve" smooth="yes"/>
      <point x="575" y="400"/>
      <point x="552" y="405"/>
      <point x="537" y="405" type="curve" smooth="yes"/>
      <point x="528" y="405"/>
      <point x="517" y="403"/>
      <point x="517" y="387" type="curve" smooth="yes"/>
      <point x="517" y="369"/>
      <point x="519" y="365"/>
      <point x="537" y="354" type="curve" smooth="yes"/>
      <point x="545" y="349"/>
      <point x="548" y="343"/>
      <point x="548" y="327" type="curve" smooth="yes"/>
      <point x="548" y="318"/>
      <point x="545" y="306"/>
      <point x="541" y="295" type="curve" smooth="yes"/>
      <point x="481" y="145" type="line" smooth="yes"/>
      <point x="478" y="138"/>
      <point x="476" y="135"/>
      <point x="473" y="135" type="curve" smooth="yes"/>
      <point x="471" y="135"/>
      <point x="468" y="139"/>
      <point x="465" y="146" type="curve" smooth="yes"/>
      <point x="416" y="265" type="line" smooth="yes"/>
      <point x="411" y="277"/>
      <point x="407" y="288"/>
      <point x="407" y="296" type="curve" smooth="yes"/>
      <point x="407" y="329"/>
      <point x="419" y="341"/>
      <point x="440" y="352" type="curve" smooth="yes"/>
      <point x="450" y="357"/>
      <point x="458" y="363"/>
      <point x="458" y="382" type="curve" smooth="yes"/>
      <point x="458" y="398"/>
      <point x="451" y="404"/>
      <point x="437" y="404" type="curve" smooth="yes"/>
      <point x="397" y="404"/>
      <point x="389" y="394"/>
      <point x="352" y="399" type="curve" smooth="yes"/>
      <point x="315" y="404"/>
      <point x="308" y="404"/>
      <point x="267" y="404" type="curve" smooth="yes"/>
      <point x="254" y="404"/>
      <point x="246" y="398"/>
      <point x="246" y="382" type="curve" smooth="yes"/>
      <point x="246" y="369"/>
      <point x="258" y="364"/>
      <point x="267" y="360" type="curve" smooth="yes"/>
      <point x="291" y="349"/>
      <point x="307" y="345"/>
      <point x="307" y="320" type="curve" smooth="yes"/>
      <point x="307" y="309"/>
      <point x="307" y="298"/>
      <point x="302" y="285" type="curve" smooth="yes"/>
      <point x="241" y="134" type="line" smooth="yes"/>
      <point x="240" y="131"/>
      <point x="238" y="130"/>
      <point x="236" y="130" type="curve" smooth="yes"/>
      <point x="234" y="130"/>
      <point x="232" y="131"/>
      <point x="231" y="134" type="curve" smooth="yes"/>
      <point x="172" y="288" type="line" smooth="yes"/>
      <point x="169" y="296"/>
      <point x="168" y="306"/>
      <point x="168" y="315" type="curve" smooth="yes"/>
      <point x="168" y="332"/>
      <point x="172" y="347"/>
      <point x="180" y="353" type="curve" smooth="yes"/>
      <point x="189" y="359"/>
      <point x="199" y="367"/>
      <point x="199" y="387" type="curve" smooth="yes"/>
      <point x="199" y="403"/>
      <point x="186" y="405"/>
      <point x="179" y="405" type="curve" smooth="yes"/>
      <point x="140" y="405"/>
      <point x="139" y="399"/>
      <point x="104" y="399" type="curve" smooth="yes"/>
      <point x="69" y="399"/>
      <point x="70" y="405"/>
      <point x="31" y="405" type="curve" smooth="yes"/>
      <point x="24" y="405"/>
      <point x="11" y="403"/>
      <point x="11" y="387" type="curve" smooth="yes"/>
      <point x="11" y="369"/>
      <point x="18" y="366"/>
      <point x="36" y="359" type="curve" smooth="yes"/>
      <point x="54" y="352"/>
      <point x="77" y="335"/>
      <point x="91" y="300" type="curve" smooth="yes"/>
      <point x="219" y="-16" type="line"/>
      <point x="220" y="-20"/>
      <point x="224" y="-23"/>
    </contour>
  </outline>
</glyph>
<glyph name="z" format="1">
  <advance width="377"/>
  <unicode hex="007A"/>
  <outline>
    <contour>
      <point x="42" y="-5" type="curve" smooth="yes"/>
      <point x="59" y="-5"/>
      <point x="91" y="0"/>
      <point x="119" y="0" type="curve" smooth="yes"/>
      <point x="228" y="0"/>
      <point x="299" y="-5"/>
      <point x="328" y="-5" type="curve" smooth="yes"/>
      <point x="336" y="-5"/>
      <point x="342" y="0"/>
      <point x="344" y="9" type="curve" smooth="yes"/>
      <point x="349" y="25"/>
      <point x="374" y="135"/>
      <point x="374" y="143" type="curve" smooth="yes"/>
      <point x="374" y="165"/>
      <point x="348" y="165"/>
      <point x="338" y="150" type="curve" smooth="yes"/>
      <point x="320" y="123"/>
      <point x="304" y="101"/>
      <point x="289" y="84" type="curve" smooth="yes"/>
      <point x="275" y="68"/>
      <point x="259" y="63"/>
      <point x="244" y="63" type="curve" smooth="yes"/>
      <point x="149" y="63" type="line" smooth="yes"/>
      <point x="140" y="63"/>
      <point x="133" y="68"/>
      <point x="140" y="78" type="curve" smooth="yes"/>
      <point x="314" y="323" type="line" smooth="yes"/>
      <point x="328" y="342"/>
      <point x="344" y="356"/>
      <point x="358" y="373" type="curve" smooth="yes"/>
      <point x="365" y="383"/>
      <point x="358" y="405"/>
      <point x="342" y="405" type="curve" smooth="yes"/>
      <point x="290" y="403"/>
      <point x="234" y="402"/>
      <point x="165" y="402" type="curve" smooth="yes"/>
      <point x="156" y="402"/>
      <point x="142" y="401"/>
      <point x="127" y="401" type="curve" smooth="yes"/>
      <point x="109" y="401"/>
      <point x="90" y="402"/>
      <point x="84" y="407" type="curve" smooth="yes"/>
      <point x="78" y="412"/>
      <point x="72" y="416"/>
      <point x="69" y="416" type="curve" smooth="yes"/>
      <point x="65" y="416"/>
      <point x="54" y="408"/>
      <point x="54" y="398" type="curve" smooth="yes"/>
      <point x="54" y="373"/>
      <point x="37" y="308"/>
      <point x="31" y="290" type="curve" smooth="yes"/>
      <point x="21" y="264"/>
      <point x="56" y="260"/>
      <point x="75" y="279" type="curve" smooth="yes"/>
      <point x="89" y="293"/>
      <point x="102" y="313"/>
      <point x="116" y="327" type="curve" smooth="yes"/>
      <point x="123" y="334"/>
      <point x="139" y="344"/>
      <point x="156" y="343" type="curve" smooth="yes"/>
      <point x="231" y="340" type="line"/>
      <point x="246" y="340"/>
      <point x="243" y="334"/>
      <point x="240" y="330" type="curve"/>
      <point x="183" y="250"/>
      <point x="127" y="170"/>
      <point x="67" y="90" type="curve" smooth="yes"/>
      <point x="49" y="65"/>
      <point x="21" y="28"/>
      <point x="21" y="26" type="curve" smooth="yes"/>
      <point x="21" y="13"/>
      <point x="30" y="-5"/>
    </contour>
  </outline>
</glyph>
<glyph name="braceleft" format="1">
  <advance width="376"/>
  <unicode hex="007B"/>
  <outline>
    <contour>
      <point x="347" y="-151"/>
      <point x="356" y="-136"/>
      <point x="356" y="-119" type="curve" smooth="yes"/>
      <point x="356" y="-99"/>
      <point x="341" y="-88"/>
      <point x="316" y="-85" type="curve" smooth="yes"/>
      <point x="265" y="-79"/>
      <point x="228" y="-70"/>
      <point x="228" y="-3" type="curve" smooth="yes"/>
      <point x="228" y="60"/>
      <point x="241" y="104"/>
      <point x="241" y="158" type="curve" smooth="yes"/>
      <point x="241" y="220"/>
      <point x="200" y="271"/>
      <point x="125" y="280" type="curve" smooth="yes"/>
      <point x="122" y="281"/>
      <point x="119" y="282"/>
      <point x="123" y="284" type="curve"/>
      <point x="200" y="294"/>
      <point x="241" y="344"/>
      <point x="241" y="406" type="curve" smooth="yes"/>
      <point x="241" y="460"/>
      <point x="228" y="504"/>
      <point x="228" y="567" type="curve" smooth="yes"/>
      <point x="228" y="634"/>
      <point x="265" y="643"/>
      <point x="316" y="649" type="curve" smooth="yes"/>
      <point x="341" y="652"/>
      <point x="356" y="663"/>
      <point x="356" y="683" type="curve" smooth="yes"/>
      <point x="356" y="700"/>
      <point x="347" y="715"/>
      <point x="321" y="714" type="curve" smooth="yes"/>
      <point x="235" y="711"/>
      <point x="143" y="679"/>
      <point x="143" y="582" type="curve" smooth="yes"/>
      <point x="143" y="512"/>
      <point x="156" y="466"/>
      <point x="156" y="404" type="curve" smooth="yes"/>
      <point x="156" y="346"/>
      <point x="127" y="330"/>
      <point x="88" y="321" type="curve" smooth="yes"/>
      <point x="56" y="314"/>
      <point x="47" y="304"/>
      <point x="47" y="282" type="curve" smooth="yes"/>
      <point x="47" y="260"/>
      <point x="56" y="250"/>
      <point x="88" y="243" type="curve" smooth="yes"/>
      <point x="127" y="234"/>
      <point x="156" y="218"/>
      <point x="156" y="160" type="curve" smooth="yes"/>
      <point x="156" y="98"/>
      <point x="143" y="52"/>
      <point x="143" y="-18" type="curve" smooth="yes"/>
      <point x="143" y="-115"/>
      <point x="235" y="-147"/>
      <point x="321" y="-150" type="curve" smooth="yes"/>
    </contour>
  </outline>
</glyph>
<glyph name="asciitilde" format="1">
  <advance width="500"/>
  <unicode hex="007E"/>
  <outline>
    <contour>
      <point x="337" y="250" type="curve" smooth="yes"/>
      <point x="386" y="250"/>
      <point x="450" y="311"/>
      <point x="450" y="352" type="curve" smooth="yes"/>
      <point x="450" y="375"/>
      <point x="435" y="387"/>
      <point x="430" y="387" type="curve" smooth="yes"/>
      <point x="425" y="387"/>
      <point x="382" y="324"/>
      <point x="337" y="324" type="curve" smooth="yes"/>
      <point x="310" y="324"/>
      <point x="285" y="339"/>
      <point x="259" y="355" type="curve" smooth="yes"/>
      <point x="233" y="371"/>
      <point x="205" y="386"/>
      <point x="171" y="386" type="curve" smooth="yes"/>
      <point x="101" y="386"/>
      <point x="50" y="311"/>
      <point x="50" y="284" type="curve" smooth="yes"/>
      <point x="50" y="270"/>
      <point x="61" y="255"/>
      <point x="69" y="255" type="curve" smooth="yes"/>
      <point x="74" y="255"/>
      <point x="110" y="310"/>
      <point x="160" y="310" type="curve" smooth="yes"/>
      <point x="189" y="310"/>
      <point x="216" y="296"/>
      <point x="243" y="281" type="curve" smooth="yes"/>
      <point x="272" y="265"/>
      <point x="302" y="250"/>
    </contour>
  </outline>
</glyph>
